<?xml version="1.0" standalone="no"?>
<!DOCTYPE svg PUBLIC "-//W3C//DTD SVG 20010904//EN"
 "http://www.w3.org/TR/2001/REC-SVG-20010904/DTD/svg10.dtd">
<svg version="1.0" xmlns="http://www.w3.org/2000/svg"
 width="700.000000pt" height="700.000000pt" viewBox="0 0 700.000000 700.000000"
 preserveAspectRatio="xMidYMid meet">
<metadata>
Created by potrace 1.14, written by Peter Selinger 2001-2017
</metadata>
<g transform="translate(0.000000,700.000000) scale(0.100000,-0.100000)"
fill="#000000" stroke="none">
<path d="M1619 6405 c-193 -31 -338 -104 -480 -245 -161 -159 -239 -325 -259
-552 -13 -153 -13 -4063 0 -4216 20 -227 98 -393 259 -552 105 -104 195 -162
320 -205 162 -57 110 -56 2094 -52 l1822 2 83 23 c374 100 628 401 662 784 13
153 13 4063 0 4216 -19 210 -95 384 -233 529 -124 130 -256 209 -429 255 l-83
23 -1835 1 c-1498 2 -1851 0 -1921 -11z m3733 -591 c61 -20 117 -70 153 -135
l30 -54 0 -2125 0 -2125 -23 -42 c-33 -63 -74 -106 -129 -133 l-48 -25 -1815
-3 c-1384 -2 -1825 0 -1859 9 -61 17 -131 76 -166 140 l-30 54 0 2125 0 2125
30 54 c33 60 93 114 151 135 33 12 307 15 1850 15 1612 1 1815 -1 1856 -15z"/>
<path d="M2482 5230 c-216 -57 -382 -230 -427 -445 -20 -96 -20 -434 0 -530
46 -220 230 -404 450 -450 104 -22 1886 -22 1990 0 221 46 404 229 450 450 20
96 20 434 0 530 -23 110 -76 207 -159 289 -82 83 -160 128 -272 156 -74 19
-113 20 -1018 19 -893 0 -945 -1 -1014 -19z m1888 -710 l0 -150 -870 0 -870 0
0 150 0 150 870 0 870 0 0 -150z"/>
<path d="M2243 3191 c-140 -48 -224 -190 -195 -329 58 -274 418 -327 541 -80
82 164 -1 362 -172 413 -66 19 -110 19 -174 -4z"/>
<path d="M3435 3201 c-59 -15 -106 -44 -149 -92 -102 -114 -102 -274 0 -388
116 -129 312 -129 428 0 102 114 102 274 0 388 -24 27 -64 58 -89 70 -50 24
-143 34 -190 22z"/>
<path d="M4574 3192 c-75 -27 -128 -73 -163 -144 -77 -154 -11 -337 146 -405
22 -10 67 -17 108 -17 165 -2 289 122 289 289 0 82 -22 141 -78 203 -70 77
-203 110 -302 74z"/>
<path d="M2214 2306 c-61 -28 -116 -82 -146 -145 -32 -65 -32 -177 0 -242 48
-99 136 -159 243 -167 85 -6 152 16 212 69 68 59 97 125 97 219 0 94 -29 160
-96 219 -84 74 -211 93 -310 47z"/>
<path d="M3372 2299 c-65 -32 -99 -66 -135 -133 -17 -33 -22 -58 -22 -126 0
-68 5 -93 22 -126 36 -67 70 -101 135 -133 86 -44 170 -44 256 0 65 32 99 66
135 133 31 59 31 193 0 252 -36 67 -70 101 -135 133 -86 44 -170 44 -256 0z"/>
<path d="M4563 2314 c-58 -21 -126 -85 -157 -146 -37 -74 -37 -182 0 -256 54
-109 160 -169 283 -160 107 8 195 68 243 167 32 65 32 177 0 242 -67 138 -225
204 -369 153z"/>
</g>
</svg>
