<?xml version="1.0" encoding="UTF-8"?><svg id="a" xmlns="http://www.w3.org/2000/svg" viewBox="0 0 250 250"><line x1="24.9" y1="191.54" x2="55.04" y2="161.39" style="stroke:#000; stroke-miterlimit:10; stroke-width:.25px;"/><line x1="24.9" y1="184.54" x2="55.04" y2="154.39" style="stroke:#000; stroke-miterlimit:10; stroke-width:.25px;"/><line x1="24.9" y1="177.54" x2="55.04" y2="147.39" style="stroke:#000; stroke-miterlimit:10; stroke-width:.25px;"/><line x1="24.9" y1="170.54" x2="55.04" y2="140.39" style="stroke:#000; stroke-miterlimit:10; stroke-width:.25px;"/><line x1="24.9" y1="163.54" x2="55.04" y2="133.39" style="stroke:#000; stroke-miterlimit:10; stroke-width:.25px;"/><line x1="24.9" y1="156.54" x2="55.04" y2="126.39" style="stroke:#000; stroke-miterlimit:10; stroke-width:.25px;"/><line x1="24.9" y1="149.54" x2="55.04" y2="119.39" style="stroke:#000; stroke-miterlimit:10; stroke-width:.25px;"/><line x1="24.9" y1="142.54" x2="55.04" y2="112.39" style="stroke:#000; stroke-miterlimit:10; stroke-width:.25px;"/><line x1="24.9" y1="135.54" x2="55.04" y2="105.39" style="stroke:#000; stroke-miterlimit:10; stroke-width:.25px;"/><line x1="24.9" y1="128.54" x2="55.04" y2="98.39" style="stroke:#000; stroke-miterlimit:10; stroke-width:.25px;"/><line x1="24.9" y1="121.54" x2="55.04" y2="91.39" style="stroke:#000; stroke-miterlimit:10; stroke-width:.25px;"/><line x1="24.9" y1="114.54" x2="55.04" y2="84.39" style="stroke:#000; stroke-miterlimit:10; stroke-width:.25px;"/><line x1="24.9" y1="107.54" x2="47.45" y2="84.98" style="stroke:#000; stroke-miterlimit:10; stroke-width:.25px;"/><line x1="24.9" y1="100.54" x2="40.39" y2="85.04" style="stroke:#000; stroke-miterlimit:10; stroke-width:.25px;"/><line x1="24.9" y1="93.54" x2="33.31" y2="85.13" style="stroke:#000; stroke-miterlimit:10; stroke-width:.25px;"/><line x1="24.9" y1="86.54" x2="26.55" y2="84.88" style="stroke:#000; stroke-miterlimit:10; stroke-width:.25px;"/><line x1="25.16" y1="198.27" x2="54.87" y2="168.57" style="stroke:#000; stroke-miterlimit:10; stroke-width:.25px;"/><line x1="25.02" y1="212.42" x2="55" y2="182.43" style="stroke:#000; stroke-miterlimit:10; stroke-width:.25px;"/><line x1="25.02" y1="205.42" x2="55" y2="175.43" style="stroke:#000; stroke-miterlimit:10; stroke-width:.25px;"/><line x1="33.42" y1="225.01" x2="63.3" y2="195.13" style="stroke:#000; stroke-miterlimit:10; stroke-width:.25px;"/><line x1="26.42" y1="225.01" x2="56.3" y2="195.13" style="stroke:#000; stroke-miterlimit:10; stroke-width:.25px;"/><line x1="25" y1="219.43" x2="55" y2="189.43" style="stroke:#000; stroke-miterlimit:10; stroke-width:.25px;"/><line x1="40.42" y1="225.01" x2="70.3" y2="195.13" style="stroke:#000; stroke-miterlimit:10; stroke-width:.25px;"/><line x1="47.42" y1="225.01" x2="77.3" y2="195.13" style="stroke:#000; stroke-miterlimit:10; stroke-width:.25px;"/><line x1="54.42" y1="225.01" x2="84.3" y2="195.13" style="stroke:#000; stroke-miterlimit:10; stroke-width:.25px;"/><line x1="61.42" y1="225.01" x2="91.3" y2="195.13" style="stroke:#000; stroke-miterlimit:10; stroke-width:.25px;"/><line x1="68.42" y1="225.01" x2="98.3" y2="195.13" style="stroke:#000; stroke-miterlimit:10; stroke-width:.25px;"/><line x1="75.42" y1="225.01" x2="105.51" y2="194.92" style="stroke:#000; stroke-miterlimit:10; stroke-width:.25px;"/><line x1="82.42" y1="225.01" x2="112.45" y2="194.98" style="stroke:#000; stroke-miterlimit:10; stroke-width:.25px;"/><line x1="89.42" y1="225.01" x2="119.55" y2="194.88" style="stroke:#000; stroke-miterlimit:10; stroke-width:.25px;"/><line x1="96.42" y1="225.01" x2="126.42" y2="195.01" style="stroke:#000; stroke-miterlimit:10; stroke-width:.25px;"/><line x1="103.42" y1="225.01" x2="133.55" y2="194.88" style="stroke:#000; stroke-miterlimit:10; stroke-width:.25px;"/><line x1="110.42" y1="225.01" x2="140.55" y2="194.88" style="stroke:#000; stroke-miterlimit:10; stroke-width:.25px;"/><line x1="117.42" y1="225.01" x2="147.3" y2="195.13" style="stroke:#000; stroke-miterlimit:10; stroke-width:.25px;"/><line x1="124.42" y1="225.01" x2="154.3" y2="195.13" style="stroke:#000; stroke-miterlimit:10; stroke-width:.25px;"/><line x1="131.42" y1="225.01" x2="161.3" y2="195.13" style="stroke:#000; stroke-miterlimit:10; stroke-width:.25px;"/><line x1="138.42" y1="225.01" x2="168.3" y2="195.13" style="stroke:#000; stroke-miterlimit:10; stroke-width:.25px;"/><line x1="145.42" y1="225.01" x2="175.3" y2="195.13" style="stroke:#000; stroke-miterlimit:10; stroke-width:.25px;"/><line x1="152.42" y1="225.01" x2="182.3" y2="195.13" style="stroke:#000; stroke-miterlimit:10; stroke-width:.25px;"/><line x1="159.42" y1="225.01" x2="189.3" y2="195.13" style="stroke:#000; stroke-miterlimit:10; stroke-width:.25px;"/><line x1="166.42" y1="225.01" x2="224.92" y2="166.51" style="stroke:#000; stroke-miterlimit:10; stroke-width:.25px;"/><line x1="195" y1="189.43" x2="224.92" y2="159.51" style="stroke:#000; stroke-miterlimit:10; stroke-width:.25px;"/><line x1="195" y1="182.43" x2="224.92" y2="152.51" style="stroke:#000; stroke-miterlimit:10; stroke-width:.25px;"/><line x1="195" y1="175.43" x2="224.92" y2="145.51" style="stroke:#000; stroke-miterlimit:10; stroke-width:.25px;"/><line x1="195" y1="168.43" x2="224.92" y2="138.51" style="stroke:#000; stroke-miterlimit:10; stroke-width:.25px;"/><line x1="195" y1="161.43" x2="224.92" y2="131.51" style="stroke:#000; stroke-miterlimit:10; stroke-width:.25px;"/><line x1="195" y1="154.43" x2="224.92" y2="124.51" style="stroke:#000; stroke-miterlimit:10; stroke-width:.25px;"/><line x1="195" y1="147.43" x2="224.92" y2="117.51" style="stroke:#000; stroke-miterlimit:10; stroke-width:.25px;"/><line x1="195" y1="140.43" x2="224.92" y2="110.51" style="stroke:#000; stroke-miterlimit:10; stroke-width:.25px;"/><line x1="195" y1="133.43" x2="224.92" y2="103.51" style="stroke:#000; stroke-miterlimit:10; stroke-width:.25px;"/><line x1="195" y1="126.43" x2="224.92" y2="96.51" style="stroke:#000; stroke-miterlimit:10; stroke-width:.25px;"/><line x1="195" y1="119.43" x2="224.92" y2="89.51" style="stroke:#000; stroke-miterlimit:10; stroke-width:.25px;"/><line x1="195" y1="112.43" x2="222.55" y2="84.88" style="stroke:#000; stroke-miterlimit:10; stroke-width:.25px;"/><line x1="195" y1="105.43" x2="215.51" y2="84.92" style="stroke:#000; stroke-miterlimit:10; stroke-width:.25px;"/><line x1="195" y1="98.43" x2="208.55" y2="84.88" style="stroke:#000; stroke-miterlimit:10; stroke-width:.25px;"/><line x1="195" y1="91.43" x2="201.28" y2="85.15" style="stroke:#000; stroke-miterlimit:10; stroke-width:.25px;"/><line x1="173.42" y1="225.01" x2="224.75" y2="173.69" style="stroke:#000; stroke-miterlimit:10; stroke-width:.25px;"/><line x1="180.42" y1="225.01" x2="224.81" y2="180.63" style="stroke:#000; stroke-miterlimit:10; stroke-width:.25px;"/><line x1="187.42" y1="225.01" x2="224.66" y2="187.78" style="stroke:#000; stroke-miterlimit:10; stroke-width:.25px;"/><line x1="194.42" y1="225.01" x2="224.3" y2="195.13" style="stroke:#000; stroke-miterlimit:10; stroke-width:.25px;"/><line x1="201.42" y1="225.01" x2="224.81" y2="201.62" style="stroke:#000; stroke-miterlimit:10; stroke-width:.25px;"/><line x1="208.42" y1="225.01" x2="224.78" y2="208.65" style="stroke:#000; stroke-miterlimit:10; stroke-width:.25px;"/><line x1="215.42" y1="225.01" x2="225.16" y2="215.27" style="stroke:#000; stroke-miterlimit:10; stroke-width:.25px;"/><line x1="222.42" y1="225.01" x2="225.07" y2="222.36" style="stroke:#000; stroke-miterlimit:10; stroke-width:.25px;"/><path d="M127.96,239.82c-.27,.3-.63,.56-1.08,.77s-.91,.31-1.37,.31h-1.64c-.88,0-1.65-.32-2.3-.95s-.98-1.41-.98-2.33v-4.92c0-.91,.32-1.68,.96-2.32s1.41-.96,2.32-.96h4.1c.55,0,.82,.27,.82,.82v7.36c0,.33,.11,.66,.32,1.01,.19,.3,.46,.54,.82,.71,.34,.14,.52,.39,.52,.74,0,.24-.08,.44-.23,.6-.14,.16-.34,.25-.59,.25-.12,0-.23-.03-.34-.08-.54-.21-.98-.54-1.32-1Zm-.81-2.2v-6.56h-3.28c-.46,0-.85,.16-1.17,.47-.16,.16-.27,.33-.35,.53s-.12,.41-.12,.64v4.92c0,.46,.16,.85,.47,1.17,.16,.14,.34,.26,.53,.35,.23,.08,.45,.12,.64,.12h1.64c.45,0,.84-.15,1.16-.46s.48-.7,.48-1.18Z"/><path d="M12.72,151.65h3.28c.89,0,1.66,.32,2.31,.96s.97,1.41,.97,2.33v4.92c0,.9-.32,1.67-.96,2.31s-1.41,.97-2.32,.97h-4.1c-.55,0-.82-.27-.82-.82v-14.77c0-.22,.08-.42,.25-.61,.16-.14,.36-.21,.57-.21s.4,.07,.57,.21,.25,.34,.25,.62v4.1Zm0,1.64v8.2h3.28c.45,0,.84-.15,1.16-.46s.48-.7,.48-1.18v-4.92c0-.46-.15-.85-.46-1.17s-.7-.47-1.18-.47h-3.28Z"/><line x1="25" y1="224.88" x2="25" y2="239.88" style="fill:none; stroke:#000; stroke-miterlimit:10; stroke-width:.5px;"/><line x1="25" y1="234.88" x2="115" y2="234.88" style="stroke:#000; stroke-miterlimit:10; stroke-width:.5px;"/><line x1="225" y1="224.18" x2="225" y2="239.18" style="fill:none; stroke:#000; stroke-miterlimit:10; stroke-width:.5px;"/><line x1="225.03" y1="234.94" x2="135.03" y2="234.94" style="fill:none; stroke:#000; stroke-miterlimit:10; stroke-width:.5px;"/><line x1="15" y1="224.88" x2="15" y2="169.88" style="fill:none; stroke:#000; stroke-miterlimit:10; stroke-width:.5px;"/><line x1="24.44" y1="224.88" x2="9.44" y2="224.88" style="fill:none; stroke:#000; stroke-miterlimit:10; stroke-width:.5px;"/><line x1="24.65" y1="84.88" x2="9.65" y2="84.88" style="stroke:#000; stroke-miterlimit:10; stroke-width:.5px;"/><line x1="15.09" y1="84.88" x2="15.09" y2="139.88" style="stroke:#000; stroke-miterlimit:10; stroke-width:.5px;"/><path d="M167.5,110.71c0,.23-.09,.42-.26,.59s-.35,.25-.52,.25l-.4-.09c-.98-.47-1.91-.7-2.79-.7s-1.67,.21-2.3,.63c-.16,.13-.23,.29-.23,.48,0,.21,.08,.36,.23,.46l5.24,3.45c.34,.27,.59,.57,.75,.92,.16,.35,.25,.69,.25,1.01,0,.37-.09,.73-.26,1.09-.18,.36-.42,.63-.72,.82-.93,.63-2,.94-3.2,.94s-2.32-.3-3.4-.91c-.3-.18-.45-.41-.45-.7l.05-.31,.08-.18,.11-.13c.17-.17,.36-.26,.58-.26l.22,.04,.2,.07c.84,.48,1.71,.72,2.61,.72,.81,0,1.58-.23,2.3-.68,.18-.11,.27-.29,.27-.54s-.09-.45-.27-.56l-5.25-3.45c-.3-.2-.52-.46-.66-.79-.1-.19-.17-.35-.19-.49s-.04-.32-.04-.55c0-.34,.08-.68,.23-1.02,.21-.39,.43-.65,.66-.79,.91-.63,1.99-.94,3.22-.94,.54,0,1.12,.08,1.76,.25s1.21,.37,1.75,.62c.3,.2,.46,.45,.46,.73Z"/><path d="M225,114.88v110H25V84.88h30v110H195V84.88h30v30Z" style="fill:none; stroke:#000; stroke-miterlimit:10;"/><line x1="230" y1="114.88" x2="170" y2="114.88" style="fill:none; stroke:#000; stroke-miterlimit:10; stroke-width:.5px;"/></svg>