<?xml version="1.0" encoding="UTF-8"?><svg id="a" xmlns="http://www.w3.org/2000/svg" viewBox="0 0 250 250"><line x1="50" y1="215.43" x2="80" y2="185.43" style="stroke:#000; stroke-miterlimit:10; stroke-width:.25px;"/><line x1="50" y1="208.43" x2="80" y2="178.43" style="stroke:#000; stroke-miterlimit:10; stroke-width:.25px;"/><line x1="50" y1="201.43" x2="80" y2="171.43" style="stroke:#000; stroke-miterlimit:10; stroke-width:.25px;"/><line x1="50" y1="194.43" x2="80" y2="164.43" style="stroke:#000; stroke-miterlimit:10; stroke-width:.25px;"/><line x1="50" y1="187.43" x2="80" y2="157.43" style="stroke:#000; stroke-miterlimit:10; stroke-width:.25px;"/><line x1="50" y1="180.43" x2="80" y2="150.43" style="stroke:#000; stroke-miterlimit:10; stroke-width:.25px;"/><line x1="50" y1="173.43" x2="80" y2="143.43" style="stroke:#000; stroke-miterlimit:10; stroke-width:.25px;"/><line x1="50" y1="166.43" x2="80" y2="136.43" style="stroke:#000; stroke-miterlimit:10; stroke-width:.25px;"/><line x1="50" y1="159.43" x2="80" y2="129.43" style="stroke:#000; stroke-miterlimit:10; stroke-width:.25px;"/><line x1="50" y1="152.43" x2="80" y2="122.43" style="stroke:#000; stroke-miterlimit:10; stroke-width:.25px;"/><line x1="50" y1="145.43" x2="80" y2="115.43" style="stroke:#000; stroke-miterlimit:10; stroke-width:.25px;"/><line x1="50" y1="138.43" x2="80" y2="108.43" style="stroke:#000; stroke-miterlimit:10; stroke-width:.25px;"/><line x1="50" y1="131.43" x2="80" y2="101.43" style="stroke:#000; stroke-miterlimit:10; stroke-width:.25px;"/><line x1="50" y1="124.43" x2="80" y2="94.43" style="stroke:#000; stroke-miterlimit:10; stroke-width:.25px;"/><line x1="50" y1="117.43" x2="80" y2="87.43" style="stroke:#000; stroke-miterlimit:10; stroke-width:.25px;"/><line x1="50" y1="110.43" x2="80" y2="80.43" style="stroke:#000; stroke-miterlimit:10; stroke-width:.25px;"/><line x1="50" y1="103.43" x2="80" y2="73.43" style="stroke:#000; stroke-miterlimit:10; stroke-width:.25px;"/><line x1="50" y1="96.43" x2="80" y2="66.43" style="stroke:#000; stroke-miterlimit:10; stroke-width:.25px;"/><line x1="50" y1="89.43" x2="80" y2="59.43" style="stroke:#000; stroke-miterlimit:10; stroke-width:.25px;"/><line x1="50" y1="222.43" x2="80" y2="192.43" style="stroke:#000; stroke-miterlimit:10; stroke-width:.25px;"/><line x1="54.93" y1="224.5" x2="84.93" y2="194.5" style="stroke:#000; stroke-miterlimit:10; stroke-width:.25px;"/><line x1="61.93" y1="224.5" x2="91.93" y2="194.5" style="stroke:#000; stroke-miterlimit:10; stroke-width:.25px;"/><line x1="68.93" y1="224.5" x2="98.93" y2="194.5" style="stroke:#000; stroke-miterlimit:10; stroke-width:.25px;"/><line x1="75.93" y1="224.5" x2="105.93" y2="194.5" style="stroke:#000; stroke-miterlimit:10; stroke-width:.25px;"/><line x1="82.93" y1="224.5" x2="112.93" y2="194.5" style="stroke:#000; stroke-miterlimit:10; stroke-width:.25px;"/><line x1="89.93" y1="224.5" x2="119.93" y2="194.5" style="stroke:#000; stroke-miterlimit:10; stroke-width:.25px;"/><line x1="96.93" y1="224.5" x2="126.93" y2="194.5" style="stroke:#000; stroke-miterlimit:10; stroke-width:.25px;"/><line x1="103.93" y1="224.5" x2="133.93" y2="194.5" style="stroke:#000; stroke-miterlimit:10; stroke-width:.25px;"/><line x1="110.93" y1="224.5" x2="140.93" y2="194.5" style="stroke:#000; stroke-miterlimit:10; stroke-width:.25px;"/><line x1="117.93" y1="224.5" x2="147.93" y2="194.5" style="stroke:#000; stroke-miterlimit:10; stroke-width:.25px;"/><line x1="124.93" y1="224.5" x2="154.93" y2="194.5" style="stroke:#000; stroke-miterlimit:10; stroke-width:.25px;"/><line x1="131.93" y1="224.5" x2="161.93" y2="194.5" style="stroke:#000; stroke-miterlimit:10; stroke-width:.25px;"/><line x1="138.93" y1="224.5" x2="168.93" y2="194.5" style="stroke:#000; stroke-miterlimit:10; stroke-width:.25px;"/><line x1="145.93" y1="224.5" x2="200" y2="170.43" style="stroke:#000; stroke-miterlimit:10; stroke-width:.25px;"/><line x1="152.93" y1="224.5" x2="200" y2="177.43" style="stroke:#000; stroke-miterlimit:10; stroke-width:.25px;"/><line x1="159.93" y1="224.5" x2="200.07" y2="184.36" style="stroke:#000; stroke-miterlimit:10; stroke-width:.25px;"/><line x1="166.93" y1="224.5" x2="200" y2="191.43" style="stroke:#000; stroke-miterlimit:10; stroke-width:.25px;"/><line x1="173.93" y1="224.5" x2="200" y2="198.43" style="stroke:#000; stroke-miterlimit:10; stroke-width:.25px;"/><line x1="180.93" y1="224.5" x2="200" y2="205.43" style="stroke:#000; stroke-miterlimit:10; stroke-width:.25px;"/><line x1="187.93" y1="224.5" x2="200" y2="212.43" style="stroke:#000; stroke-miterlimit:10; stroke-width:.25px;"/><line x1="194.93" y1="224.5" x2="200" y2="219.43" style="stroke:#000; stroke-miterlimit:10; stroke-width:.25px;"/><line x1="84.93" y1="54.5" x2="114.93" y2="24.5" style="stroke:#000; stroke-miterlimit:10; stroke-width:.25px;"/><line x1="91.93" y1="54.5" x2="121.93" y2="24.5" style="stroke:#000; stroke-miterlimit:10; stroke-width:.25px;"/><line x1="98.93" y1="54.5" x2="128.93" y2="24.5" style="stroke:#000; stroke-miterlimit:10; stroke-width:.25px;"/><line x1="105.93" y1="54.5" x2="135.93" y2="24.5" style="stroke:#000; stroke-miterlimit:10; stroke-width:.25px;"/><line x1="112.93" y1="54.5" x2="142.93" y2="24.5" style="stroke:#000; stroke-miterlimit:10; stroke-width:.25px;"/><line x1="119.93" y1="54.5" x2="149.93" y2="24.5" style="stroke:#000; stroke-miterlimit:10; stroke-width:.25px;"/><line x1="126.93" y1="54.5" x2="156.93" y2="24.5" style="stroke:#000; stroke-miterlimit:10; stroke-width:.25px;"/><line x1="133.93" y1="54.5" x2="163.93" y2="24.5" style="stroke:#000; stroke-miterlimit:10; stroke-width:.25px;"/><line x1="140.93" y1="54.5" x2="170.93" y2="24.5" style="stroke:#000; stroke-miterlimit:10; stroke-width:.25px;"/><line x1="147.93" y1="54.5" x2="177.93" y2="24.5" style="stroke:#000; stroke-miterlimit:10; stroke-width:.25px;"/><line x1="154.93" y1="54.5" x2="184.93" y2="24.5" style="stroke:#000; stroke-miterlimit:10; stroke-width:.25px;"/><line x1="161.93" y1="54.5" x2="191.93" y2="24.5" style="stroke:#000; stroke-miterlimit:10; stroke-width:.25px;"/><line x1="168.93" y1="54.5" x2="198.93" y2="24.5" style="stroke:#000; stroke-miterlimit:10; stroke-width:.25px;"/><line x1="170" y1="60.43" x2="200" y2="30.43" style="stroke:#000; stroke-miterlimit:10; stroke-width:.25px;"/><line x1="170" y1="67.43" x2="200" y2="37.43" style="stroke:#000; stroke-miterlimit:10; stroke-width:.25px;"/><line x1="170" y1="74.43" x2="200" y2="44.43" style="stroke:#000; stroke-miterlimit:10; stroke-width:.25px;"/><line x1="170" y1="81.43" x2="200" y2="51.43" style="stroke:#000; stroke-miterlimit:10; stroke-width:.25px;"/><line x1="170" y1="88.43" x2="200" y2="58.43" style="stroke:#000; stroke-miterlimit:10; stroke-width:.25px;"/><line x1="170" y1="95.43" x2="200" y2="65.43" style="stroke:#000; stroke-miterlimit:10; stroke-width:.25px;"/><line x1="170" y1="102.43" x2="200" y2="72.43" style="stroke:#000; stroke-miterlimit:10; stroke-width:.25px;"/><line x1="170" y1="109.43" x2="200" y2="79.43" style="stroke:#000; stroke-miterlimit:10; stroke-width:.25px;"/><line x1="170" y1="116.43" x2="200" y2="86.43" style="stroke:#000; stroke-miterlimit:10; stroke-width:.25px;"/><line x1="170" y1="123.43" x2="200" y2="93.43" style="stroke:#000; stroke-miterlimit:10; stroke-width:.25px;"/><line x1="170" y1="130.43" x2="200" y2="100.43" style="stroke:#000; stroke-miterlimit:10; stroke-width:.25px;"/><line x1="170" y1="137.43" x2="200" y2="107.43" style="stroke:#000; stroke-miterlimit:10; stroke-width:.25px;"/><line x1="170" y1="144.43" x2="200" y2="114.43" style="stroke:#000; stroke-miterlimit:10; stroke-width:.25px;"/><line x1="170" y1="151.43" x2="200" y2="121.43" style="stroke:#000; stroke-miterlimit:10; stroke-width:.25px;"/><line x1="170" y1="158.43" x2="200" y2="128.43" style="stroke:#000; stroke-miterlimit:10; stroke-width:.25px;"/><line x1="170" y1="165.43" x2="200" y2="135.43" style="stroke:#000; stroke-miterlimit:10; stroke-width:.25px;"/><line x1="170" y1="172.43" x2="200" y2="142.43" style="stroke:#000; stroke-miterlimit:10; stroke-width:.25px;"/><line x1="170" y1="179.43" x2="200" y2="149.43" style="stroke:#000; stroke-miterlimit:10; stroke-width:.25px;"/><line x1="170" y1="186.43" x2="200" y2="156.43" style="stroke:#000; stroke-miterlimit:10; stroke-width:.25px;"/><line x1="170" y1="193.43" x2="200" y2="163.43" style="stroke:#000; stroke-miterlimit:10; stroke-width:.25px;"/><line x1="50" y1="82.43" x2="107.93" y2="24.5" style="stroke:#000; stroke-miterlimit:10; stroke-width:.25px;"/><line x1="50" y1="75.43" x2="100.93" y2="24.5" style="stroke:#000; stroke-miterlimit:10; stroke-width:.25px;"/><line x1="50" y1="68.43" x2="93.93" y2="24.5" style="stroke:#000; stroke-miterlimit:10; stroke-width:.25px;"/><line x1="50.09" y1="61.35" x2="86.93" y2="24.5" style="stroke:#000; stroke-miterlimit:10; stroke-width:.25px;"/><line x1="49.93" y1="54.5" x2="79.49" y2="24.95" style="stroke:#000; stroke-miterlimit:10; stroke-width:.25px;"/><line x1="50" y1="47.43" x2="72.49" y2="24.95" style="stroke:#000; stroke-miterlimit:10; stroke-width:.25px;"/><line x1="50" y1="40.43" x2="65.49" y2="24.95" style="stroke:#000; stroke-miterlimit:10; stroke-width:.25px;"/><line x1="50" y1="33.43" x2="58.49" y2="24.95" style="stroke:#000; stroke-miterlimit:10; stroke-width:.25px;"/><line x1="50" y1="26.43" x2="51.49" y2="24.95" style="stroke:#000; stroke-miterlimit:10; stroke-width:.25px;"/><path d="M127.96,239.82c-.27,.3-.63,.56-1.08,.77s-.91,.31-1.37,.31h-1.64c-.88,0-1.65-.32-2.3-.95s-.98-1.41-.98-2.33v-4.92c0-.91,.32-1.68,.96-2.32s1.41-.96,2.32-.96h4.1c.55,0,.82,.27,.82,.82v7.36c0,.33,.11,.66,.32,1.01,.19,.3,.46,.54,.82,.71,.34,.14,.52,.39,.52,.74,0,.24-.08,.44-.23,.6-.14,.16-.34,.25-.59,.25-.12,0-.23-.03-.34-.08-.54-.21-.98-.54-1.32-1Zm-.81-2.2v-6.56h-3.28c-.46,0-.85,.16-1.17,.47-.16,.16-.27,.33-.35,.53s-.12,.41-.12,.64v4.92c0,.46,.16,.85,.47,1.17,.16,.14,.34,.26,.53,.35,.23,.08,.45,.12,.64,.12h1.64c.45,0,.84-.15,1.16-.46s.48-.7,.48-1.18Z"/><path d="M38.43,120.63h3.28c.89,0,1.66,.32,2.31,.96s.97,1.41,.97,2.33v4.92c0,.9-.32,1.67-.96,2.31s-1.41,.97-2.32,.97h-4.1c-.55,0-.82-.27-.82-.82v-14.77c0-.22,.08-.42,.25-.61,.16-.14,.36-.21,.57-.21s.4,.07,.57,.21,.25,.34,.25,.62v4.1Zm0,1.64v8.2h3.28c.45,0,.84-.15,1.16-.46s.48-.7,.48-1.18v-4.92c0-.46-.15-.85-.46-1.17s-.7-.47-1.18-.47h-3.28Z"/><line x1="50" y1="224.34" x2="50" y2="239.34" style="fill:none; stroke:#000; stroke-miterlimit:10; stroke-width:.5px;"/><line x1="50" y1="234.94" x2="115" y2="234.94" style="stroke:#000; stroke-miterlimit:10; stroke-width:.5px;"/><line x1="200" y1="224.94" x2="200" y2="239.94" style="fill:none; stroke:#000; stroke-miterlimit:10; stroke-width:.5px;"/><line x1="199.93" y1="234.94" x2="134.93" y2="234.94" style="fill:none; stroke:#000; stroke-miterlimit:10; stroke-width:.5px;"/><line x1="40.72" y1="224.46" x2="40.72" y2="139.46" style="fill:none; stroke:#000; stroke-miterlimit:10; stroke-width:.5px;"/><line x1="50.72" y1="224.34" x2="35.72" y2="224.34" style="fill:none; stroke:#000; stroke-miterlimit:10; stroke-width:.5px;"/><line x1="50.36" y1="24.54" x2="35.36" y2="24.54" style="stroke:#000; stroke-miterlimit:10; stroke-width:.5px;"/><line x1="40.8" y1="24.54" x2="40.8" y2="109.54" style="stroke:#000; stroke-miterlimit:10; stroke-width:.5px;"/><path d="M226.04,71.58c0,.23-.09,.42-.26,.59s-.35,.25-.52,.25l-.4-.09c-.98-.47-1.91-.7-2.79-.7s-1.67,.21-2.3,.63c-.16,.13-.23,.29-.23,.48,0,.21,.08,.36,.23,.46l5.24,3.45c.34,.27,.59,.57,.75,.92,.16,.35,.25,.69,.25,1.01,0,.37-.09,.73-.26,1.09-.18,.36-.42,.63-.72,.82-.93,.63-2,.94-3.2,.94s-2.32-.3-3.4-.91c-.3-.18-.45-.41-.45-.7l.05-.31,.08-.18,.11-.13c.17-.17,.36-.26,.58-.26l.22,.04,.2,.07c.84,.48,1.71,.72,2.61,.72,.81,0,1.58-.23,2.3-.68,.18-.11,.27-.29,.27-.54s-.09-.45-.27-.56l-5.25-3.45c-.3-.2-.52-.46-.66-.79-.1-.19-.17-.35-.19-.49s-.04-.32-.04-.55c0-.34,.08-.68,.23-1.02,.21-.39,.43-.65,.66-.79,.91-.63,1.99-.94,3.22-.94,.54,0,1.12,.08,1.76,.25s1.21,.37,1.75,.62c.3,.2,.46,.45,.46,.73Z"/><line x1="215" y1="75.65" x2="165" y2="75.65" style="fill:none; stroke:#000; stroke-miterlimit:10; stroke-width:.5px;"/><rect x="50" y="24.5" width="150" height="200" style="fill:none; stroke:#000; stroke-miterlimit:10;"/><rect x="80" y="54.5" width="90" height="140" style="fill:none; stroke:#000; stroke-miterlimit:10;"/></svg>