<?xml version="1.0" encoding="UTF-8"?><svg id="a" xmlns="http://www.w3.org/2000/svg" viewBox="0 0 250 250"><line x1="29.2" y1="96.24" x2="96.24" y2="29.2" style="stroke:#000; stroke-miterlimit:10; stroke-width:.25px;"/><line x1="26.9" y1="105.54" x2="51.97" y2="80.47" style="stroke:#000; stroke-miterlimit:10; stroke-width:.25px;"/><line x1="25.49" y1="113.95" x2="46.43" y2="93" style="stroke:#000; stroke-miterlimit:10; stroke-width:.25px;"/><line x1="25.08" y1="121.35" x2="42.68" y2="103.76" style="stroke:#000; stroke-miterlimit:10; stroke-width:.25px;"/><line x1="25.06" y1="128.38" x2="41.42" y2="112.02" style="stroke:#000; stroke-miterlimit:10; stroke-width:.25px;"/><line x1="25.34" y1="135.09" x2="40.13" y2="120.31" style="stroke:#000; stroke-miterlimit:10; stroke-width:.25px;"/><line x1="26.3" y1="141.14" x2="40" y2="127.43" style="stroke:#000; stroke-miterlimit:10; stroke-width:.25px;"/><line x1="27.37" y1="147.06" x2="40.47" y2="133.97" style="stroke:#000; stroke-miterlimit:10; stroke-width:.25px;"/><line x1="28.85" y1="152.58" x2="41.34" y2="140.1" style="stroke:#000; stroke-miterlimit:10; stroke-width:.25px;"/><line x1="30.46" y1="157.97" x2="42.58" y2="145.85" style="stroke:#000; stroke-miterlimit:10; stroke-width:.25px;"/><line x1="32.42" y1="163.01" x2="44.15" y2="151.29" style="stroke:#000; stroke-miterlimit:10; stroke-width:.25px;"/><line x1="34.54" y1="167.9" x2="46" y2="156.43" style="stroke:#000; stroke-miterlimit:10; stroke-width:.25px;"/><line x1="36.94" y1="172.5" x2="48.07" y2="161.36" style="stroke:#000; stroke-miterlimit:10; stroke-width:.25px;"/><line x1="39.45" y1="176.99" x2="50.44" y2="165.99" style="stroke:#000; stroke-miterlimit:10; stroke-width:.25px;"/><line x1="42.28" y1="181.15" x2="53.09" y2="170.34" style="stroke:#000; stroke-miterlimit:10; stroke-width:.25px;"/><line x1="45.1" y1="185.33" x2="55.93" y2="174.5" style="stroke:#000; stroke-miterlimit:10; stroke-width:.25px;"/><line x1="48.26" y1="189.18" x2="58.93" y2="178.51" style="stroke:#000; stroke-miterlimit:10; stroke-width:.25px;"/><line x1="78.03" y1="54.4" x2="105.54" y2="26.89" style="stroke:#000; stroke-miterlimit:10; stroke-width:.25px;"/><line x1="94.01" y1="45.42" x2="113.6" y2="25.83" style="stroke:#000; stroke-miterlimit:10; stroke-width:.25px;"/><line x1="103.81" y1="42.63" x2="121.56" y2="24.88" style="stroke:#000; stroke-miterlimit:10; stroke-width:.25px;"/><line x1="112.68" y1="40.75" x2="128.25" y2="25.19" style="stroke:#000; stroke-miterlimit:10; stroke-width:.25px;"/><line x1="120.46" y1="39.97" x2="134.87" y2="25.56" style="stroke:#000; stroke-miterlimit:10; stroke-width:.25px;"/><line x1="127.67" y1="39.77" x2="141.36" y2="26.08" style="stroke:#000; stroke-miterlimit:10; stroke-width:.25px;"/><line x1="133.97" y1="40.47" x2="147" y2="27.43" style="stroke:#000; stroke-miterlimit:10; stroke-width:.25px;"/><line x1="140.1" y1="41.34" x2="152.24" y2="29.2" style="stroke:#000; stroke-miterlimit:10; stroke-width:.25px;"/><line x1="145.86" y1="42.58" x2="157.9" y2="30.54" style="stroke:#000; stroke-miterlimit:10; stroke-width:.25px;"/><line x1="151.29" y1="44.15" x2="162.97" y2="32.46" style="stroke:#000; stroke-miterlimit:10; stroke-width:.25px;"/><line x1="156.31" y1="46.12" x2="167.83" y2="34.61" style="stroke:#000; stroke-miterlimit:10; stroke-width:.25px;"/><line x1="161.31" y1="48.12" x2="172.47" y2="36.96" style="stroke:#000; stroke-miterlimit:10; stroke-width:.25px;"/><line x1="165.94" y1="50.49" x2="176.92" y2="39.52" style="stroke:#000; stroke-miterlimit:10; stroke-width:.25px;"/><line x1="170.45" y1="52.98" x2="181.28" y2="42.15" style="stroke:#000; stroke-miterlimit:10; stroke-width:.25px;"/><line x1="174.52" y1="55.91" x2="185.25" y2="45.18" style="stroke:#000; stroke-miterlimit:10; stroke-width:.25px;"/><line x1="178.53" y1="58.9" x2="189.15" y2="48.29" style="stroke:#000; stroke-miterlimit:10; stroke-width:.25px;"/><line x1="182.26" y1="62.18" x2="192.87" y2="51.56" style="stroke:#000; stroke-miterlimit:10; stroke-width:.25px;"/><line x1="185.81" y1="65.62" x2="196.42" y2="55.01" style="stroke:#000; stroke-miterlimit:10; stroke-width:.25px;"/><line x1="189.17" y1="69.26" x2="199.8" y2="58.63" style="stroke:#000; stroke-miterlimit:10; stroke-width:.25px;"/><line x1="192.24" y1="73.19" x2="202.96" y2="62.47" style="stroke:#000; stroke-miterlimit:10; stroke-width:.25px;"/><line x1="195.22" y1="77.21" x2="206.04" y2="66.4" style="stroke:#000; stroke-miterlimit:10; stroke-width:.25px;"/><line x1="198" y1="81.43" x2="208.89" y2="70.55" style="stroke:#000; stroke-miterlimit:10; stroke-width:.25px;"/><line x1="200.38" y1="86.05" x2="211.55" y2="74.88" style="stroke:#000; stroke-miterlimit:10; stroke-width:.25px;"/><line x1="202.64" y1="90.79" x2="214.02" y2="79.41" style="stroke:#000; stroke-miterlimit:10; stroke-width:.25px;"/><line x1="205" y1="95.43" x2="216.3" y2="84.14" style="stroke:#000; stroke-miterlimit:10; stroke-width:.25px;"/><line x1="206.35" y1="101.08" x2="218.35" y2="89.08" style="stroke:#000; stroke-miterlimit:10; stroke-width:.25px;"/><line x1="207.97" y1="106.46" x2="220.18" y2="94.25" style="stroke:#000; stroke-miterlimit:10; stroke-width:.25px;"/><line x1="209.07" y1="112.37" x2="221.51" y2="99.93" style="stroke:#000; stroke-miterlimit:10; stroke-width:.25px;"/><line x1="210" y1="118.43" x2="222.72" y2="105.72" style="stroke:#000; stroke-miterlimit:10; stroke-width:.25px;"/><line x1="209.91" y1="125.52" x2="223.79" y2="111.65" style="stroke:#000; stroke-miterlimit:10; stroke-width:.25px;"/><line x1="209.5" y1="132.93" x2="224.38" y2="118.06" style="stroke:#000; stroke-miterlimit:10; stroke-width:.25px;"/><line x1="208.51" y1="140.92" x2="225.03" y2="124.4" style="stroke:#000; stroke-miterlimit:10; stroke-width:.25px;"/><line x1="206.19" y1="150.25" x2="224.78" y2="131.65" style="stroke:#000; stroke-miterlimit:10; stroke-width:.25px;"/><line x1="202.19" y1="161.25" x2="223.75" y2="139.68" style="stroke:#000; stroke-miterlimit:10; stroke-width:.25px;"/><line x1="33.23" y1="85.2" x2="84.96" y2="33.47" style="stroke:#000; stroke-miterlimit:10; stroke-width:.25px;"/><line x1="42.31" y1="69.13" x2="69.39" y2="42.04" style="stroke:#000; stroke-miterlimit:10; stroke-width:.25px;"/><line x1="148.12" y1="222.31" x2="222.31" y2="148.12" style="stroke:#000; stroke-miterlimit:10; stroke-width:.25px;"/><line x1="139.48" y1="223.96" x2="161.78" y2="201.65" style="stroke:#000; stroke-miterlimit:10; stroke-width:.25px;"/><line x1="131.65" y1="224.78" x2="150.25" y2="206.19" style="stroke:#000; stroke-miterlimit:10; stroke-width:.25px;"/><line x1="124.72" y1="224.72" x2="140.92" y2="208.51" style="stroke:#000; stroke-miterlimit:10; stroke-width:.25px;"/><line x1="117.97" y1="224.47" x2="132.79" y2="209.65" style="stroke:#000; stroke-miterlimit:10; stroke-width:.25px;"/><line x1="111.48" y1="223.96" x2="125.22" y2="210.22" style="stroke:#000; stroke-miterlimit:10; stroke-width:.25px;"/><line x1="105.36" y1="223.07" x2="118.67" y2="209.77" style="stroke:#000; stroke-miterlimit:10; stroke-width:.25px;"/><line x1="99.8" y1="221.64" x2="112.37" y2="209.07" style="stroke:#000; stroke-miterlimit:10; stroke-width:.25px;"/><line x1="94.25" y1="220.18" x2="106.2" y2="208.24" style="stroke:#000; stroke-miterlimit:10; stroke-width:.25px;"/><line x1="89.22" y1="218.22" x2="100.9" y2="206.53" style="stroke:#000; stroke-miterlimit:10; stroke-width:.25px;"/><line x1="84.14" y1="216.3" x2="95.64" y2="204.79" style="stroke:#000; stroke-miterlimit:10; stroke-width:.25px;"/><line x1="79.41" y1="214.03" x2="90.66" y2="202.78" style="stroke:#000; stroke-miterlimit:10; stroke-width:.25px;"/><line x1="74.99" y1="211.44" x2="85.93" y2="200.51" style="stroke:#000; stroke-miterlimit:10; stroke-width:.25px;"/><line x1="70.55" y1="208.89" x2="81.43" y2="198" style="stroke:#000; stroke-miterlimit:10; stroke-width:.25px;"/><line x1="66.4" y1="206.04" x2="77.26" y2="195.18" style="stroke:#000; stroke-miterlimit:10; stroke-width:.25px;"/><line x1="62.43" y1="203.01" x2="73.19" y2="192.25" style="stroke:#000; stroke-miterlimit:10; stroke-width:.25px;"/><line x1="58.66" y1="199.78" x2="69.26" y2="189.17" style="stroke:#000; stroke-miterlimit:10; stroke-width:.25px;"/><line x1="55.01" y1="196.42" x2="65.63" y2="185.81" style="stroke:#000; stroke-miterlimit:10; stroke-width:.25px;"/><line x1="51.56" y1="192.87" x2="62.15" y2="182.29" style="stroke:#000; stroke-miterlimit:10; stroke-width:.25px;"/><line x1="158.01" y1="219.42" x2="219.42" y2="158.01" style="stroke:#000; stroke-miterlimit:10; stroke-width:.25px;"/><line x1="170.22" y1="214.21" x2="214.21" y2="170.22" style="stroke:#000; stroke-miterlimit:10; stroke-width:.25px;"/><line x1="190.69" y1="200.75" x2="201.35" y2="190.08" style="stroke:#000; stroke-miterlimit:10; stroke-width:.25px;"/><path d="M127.15,235.42v-4.1c0-.22,.08-.42,.25-.61,.16-.14,.36-.21,.57-.21s.4,.07,.57,.21,.25,.34,.25,.62v14.77c0,.55-.27,.82-.82,.82h-4.1c-.88,0-1.65-.32-2.3-.95s-.98-1.41-.98-2.33v-4.92c0-.91,.32-1.68,.96-2.32s1.41-.96,2.32-.96h3.28Zm0,1.64h-3.28c-.46,0-.85,.16-1.17,.47-.16,.16-.27,.33-.35,.53s-.12,.41-.12,.64v4.92c0,.46,.16,.85,.47,1.17,.16,.14,.34,.26,.53,.35,.23,.08,.45,.12,.64,.12h3.28v-8.2Z"/><line x1="25" y1="126.39" x2="25" y2="241.39" style="fill:none; stroke:#000; stroke-miterlimit:10; stroke-width:.5px;"/><line x1="25" y1="234.88" x2="115" y2="234.88" style="stroke:#000; stroke-miterlimit:10; stroke-width:.5px;"/><line x1="225.03" y1="125" x2="225.03" y2="240" style="fill:none; stroke:#000; stroke-miterlimit:10; stroke-width:.5px;"/><line x1="225.03" y1="234.94" x2="135.03" y2="234.94" style="fill:none; stroke:#000; stroke-miterlimit:10; stroke-width:.5px;"/><circle cx="125" cy="125" r="100" style="fill:none; stroke:#000; stroke-miterlimit:10;"/><circle cx="125" cy="125" r="85" style="fill:none; stroke:#000; stroke-miterlimit:10;"/><line x1="172.18" y1="63.95" x2="208.33" y2="27.65" style="stroke:#000; stroke-miterlimit:10; stroke-width:.5px;"/><path d="M218.13,21.02c0,.23-.09,.42-.26,.59s-.35,.25-.52,.25l-.4-.09c-.98-.47-1.91-.7-2.79-.7s-1.67,.21-2.3,.63c-.16,.13-.23,.29-.23,.48,0,.21,.08,.36,.23,.46l5.24,3.45c.34,.27,.59,.57,.75,.92,.16,.35,.25,.69,.25,1.01,0,.37-.09,.73-.26,1.09-.18,.36-.42,.63-.72,.82-.93,.63-2,.94-3.2,.94s-2.32-.3-3.4-.91c-.3-.18-.45-.41-.45-.7l.05-.31,.08-.18,.11-.13c.17-.17,.36-.26,.58-.26l.22,.04,.2,.07c.84,.48,1.71,.72,2.61,.72,.81,0,1.58-.23,2.3-.68,.18-.11,.27-.29,.27-.54s-.09-.45-.27-.56l-5.25-3.45c-.3-.2-.52-.46-.66-.79-.1-.19-.17-.35-.19-.49s-.04-.32-.04-.55c0-.34,.08-.68,.23-1.02,.21-.39,.43-.65,.66-.79,.91-.63,1.99-.94,3.22-.94,.54,0,1.12,.08,1.76,.25s1.21,.37,1.75,.62c.3,.2,.46,.45,.46,.73Z"/></svg>