<?xml version="1.0" encoding="UTF-8"?><svg id="a" xmlns="http://www.w3.org/2000/svg" viewBox="0 0 250 250"><line x1="76.43" y1="175" x2="176.43" y2="75" style="stroke:#000; stroke-miterlimit:10; stroke-width:.25px;"/><line x1="83.43" y1="175" x2="183.43" y2="75" style="stroke:#000; stroke-miterlimit:10; stroke-width:.25px;"/><line x1="90.43" y1="175" x2="190.43" y2="75" style="stroke:#000; stroke-miterlimit:10; stroke-width:.25px;"/><line x1="97.43" y1="175" x2="197.43" y2="75" style="stroke:#000; stroke-miterlimit:10; stroke-width:.25px;"/><line x1="104.43" y1="175" x2="204.43" y2="75" style="stroke:#000; stroke-miterlimit:10; stroke-width:.25px;"/><line x1="111.43" y1="175" x2="211.43" y2="75" style="stroke:#000; stroke-miterlimit:10; stroke-width:.25px;"/><line x1="118.43" y1="175" x2="218.43" y2="75" style="stroke:#000; stroke-miterlimit:10; stroke-width:.25px;"/><line x1="125.43" y1="175" x2="224.5" y2="75.93" style="stroke:#000; stroke-miterlimit:10; stroke-width:.25px;"/><line x1="132.43" y1="175" x2="224.26" y2="83.17" style="stroke:#000; stroke-miterlimit:10; stroke-width:.25px;"/><line x1="139.43" y1="175" x2="224.41" y2="90.03" style="stroke:#000; stroke-miterlimit:10; stroke-width:.25px;"/><line x1="146.43" y1="175" x2="224.5" y2="96.93" style="stroke:#000; stroke-miterlimit:10; stroke-width:.25px;"/><line x1="153.43" y1="175" x2="224.5" y2="103.93" style="stroke:#000; stroke-miterlimit:10; stroke-width:.25px;"/><line x1="160.43" y1="175" x2="224.5" y2="110.93" style="stroke:#000; stroke-miterlimit:10; stroke-width:.25px;"/><line x1="167.43" y1="175" x2="224.03" y2="118.41" style="stroke:#000; stroke-miterlimit:10; stroke-width:.25px;"/><line x1="174.43" y1="175" x2="224" y2="125.44" style="stroke:#000; stroke-miterlimit:10; stroke-width:.25px;"/><line x1="181.43" y1="175" x2="224.5" y2="131.93" style="stroke:#000; stroke-miterlimit:10; stroke-width:.25px;"/><line x1="188.43" y1="175" x2="224.43" y2="139" style="stroke:#000; stroke-miterlimit:10; stroke-width:.25px;"/><line x1="195.43" y1="175" x2="224.43" y2="146" style="stroke:#000; stroke-miterlimit:10; stroke-width:.25px;"/><line x1="202.43" y1="175" x2="225.03" y2="152.4" style="stroke:#000; stroke-miterlimit:10; stroke-width:.25px;"/><line x1="209.43" y1="175" x2="224.5" y2="159.93" style="stroke:#000; stroke-miterlimit:10; stroke-width:.25px;"/><line x1="216.43" y1="175" x2="225.03" y2="166.4" style="stroke:#000; stroke-miterlimit:10; stroke-width:.25px;"/><line x1="223.43" y1="175" x2="225.03" y2="173.4" style="stroke:#000; stroke-miterlimit:10; stroke-width:.25px;"/><line x1="69.43" y1="175" x2="169.43" y2="75" style="stroke:#000; stroke-miterlimit:10; stroke-width:.25px;"/><line x1="62.43" y1="175" x2="162.43" y2="75" style="stroke:#000; stroke-miterlimit:10; stroke-width:.25px;"/><line x1="55.43" y1="175" x2="155.43" y2="75" style="stroke:#000; stroke-miterlimit:10; stroke-width:.25px;"/><line x1="48.43" y1="175" x2="148.43" y2="75" style="stroke:#000; stroke-miterlimit:10; stroke-width:.25px;"/><line x1="41.43" y1="175" x2="141.43" y2="75" style="stroke:#000; stroke-miterlimit:10; stroke-width:.25px;"/><line x1="34.43" y1="175" x2="134.43" y2="75" style="stroke:#000; stroke-miterlimit:10; stroke-width:.25px;"/><line x1="27.43" y1="175" x2="127.43" y2="75" style="stroke:#000; stroke-miterlimit:10; stroke-width:.25px;"/><line x1="24.5" y1="170.93" x2="120.43" y2="75" style="stroke:#000; stroke-miterlimit:10; stroke-width:.25px;"/><line x1="24.5" y1="163.93" x2="113.43" y2="75" style="stroke:#000; stroke-miterlimit:10; stroke-width:.25px;"/><line x1="24.5" y1="156.93" x2="106.43" y2="75" style="stroke:#000; stroke-miterlimit:10; stroke-width:.25px;"/><line x1="24.5" y1="149.93" x2="99.43" y2="75" style="stroke:#000; stroke-miterlimit:10; stroke-width:.25px;"/><line x1="24.5" y1="142.93" x2="92.43" y2="75" style="stroke:#000; stroke-miterlimit:10; stroke-width:.25px;"/><line x1="24.47" y1="135.97" x2="85.43" y2="75" style="stroke:#000; stroke-miterlimit:10; stroke-width:.25px;"/><line x1="24.5" y1="128.93" x2="78.43" y2="75" style="stroke:#000; stroke-miterlimit:10; stroke-width:.25px;"/><line x1="24.23" y1="122.2" x2="71.43" y2="75" style="stroke:#000; stroke-miterlimit:10; stroke-width:.25px;"/><line x1="24.5" y1="114.93" x2="64.43" y2="75" style="stroke:#000; stroke-miterlimit:10; stroke-width:.25px;"/><line x1="24.5" y1="107.93" x2="57.43" y2="75" style="stroke:#000; stroke-miterlimit:10; stroke-width:.25px;"/><line x1="25" y1="100.43" x2="50.43" y2="75" style="stroke:#000; stroke-miterlimit:10; stroke-width:.25px;"/><line x1="25" y1="93.43" x2="43.43" y2="75" style="stroke:#000; stroke-miterlimit:10; stroke-width:.25px;"/><line x1="24.36" y1="87.08" x2="36.43" y2="75" style="stroke:#000; stroke-miterlimit:10; stroke-width:.25px;"/><line x1="24.5" y1="79.93" x2="29.43" y2="75" style="stroke:#000; stroke-miterlimit:10; stroke-width:.25px;"/><path d="M127.44,189.84c-.27,.3-.63,.56-1.08,.77-.46,.21-.91,.31-1.37,.31h-1.64c-.88,0-1.65-.32-2.3-.95s-.98-1.41-.98-2.33v-4.92c0-.91,.32-1.68,.96-2.32s1.41-.96,2.32-.96h4.1c.55,0,.82,.27,.82,.82v7.36c0,.33,.11,.66,.32,1.01,.19,.3,.46,.54,.82,.71,.34,.14,.52,.39,.52,.74,0,.24-.08,.44-.23,.6-.14,.16-.34,.25-.59,.25-.12,0-.23-.03-.34-.08-.54-.21-.98-.54-1.32-1Zm-.81-2.2v-6.56h-3.28c-.46,0-.85,.16-1.17,.47-.16,.16-.27,.33-.35,.53s-.12,.41-.12,.64v4.92c0,.46,.16,.85,.47,1.17,.16,.14,.34,.26,.53,.35,.23,.08,.45,.12,.64,.12h1.64c.45,0,.84-.15,1.16-.46,.32-.3,.48-.7,.48-1.18Z"/><path d="M12.72,121.18h3.28c.89,0,1.66,.32,2.31,.96s.97,1.41,.97,2.33v4.92c0,.9-.32,1.67-.96,2.31s-1.41,.97-2.32,.97h-4.1c-.55,0-.82-.27-.82-.82v-14.77c0-.22,.08-.42,.25-.61,.16-.14,.36-.21,.57-.21s.4,.07,.57,.21,.25,.34,.25,.62v4.1Zm0,1.64v8.2h3.28c.45,0,.84-.15,1.16-.46s.48-.7,.48-1.18v-4.92c0-.46-.15-.85-.46-1.17s-.7-.47-1.18-.47h-3.28Z"/><line x1="24.49" y1="174.9" x2="24.49" y2="189.9" style="fill:none; stroke:#000; stroke-miterlimit:10; stroke-width:.5px;"/><line x1="24.49" y1="184.9" x2="114.49" y2="184.9" style="stroke:#000; stroke-miterlimit:10; stroke-width:.5px;"/><line x1="224.51" y1="174.96" x2="224.51" y2="189.96" style="fill:none; stroke:#000; stroke-miterlimit:10; stroke-width:.5px;"/><line x1="224.51" y1="184.96" x2="134.51" y2="184.96" style="fill:none; stroke:#000; stroke-miterlimit:10; stroke-width:.5px;"/><line x1="15" y1="175" x2="15" y2="140" style="fill:none; stroke:#000; stroke-miterlimit:10; stroke-width:.5px;"/><line x1="24.5" y1="175" x2="9.5" y2="175" style="fill:none; stroke:#000; stroke-miterlimit:10; stroke-width:.5px;"/><line x1="24.5" y1="75" x2="9.5" y2="75" style="stroke:#000; stroke-miterlimit:10; stroke-width:.5px;"/><line x1="15" y1="75" x2="15" y2="110" style="stroke:#000; stroke-miterlimit:10; stroke-width:.5px;"/><rect x="24.5" y="75" width="200" height="100" style="fill:none; stroke:#000; stroke-miterlimit:10;"/></svg>