<?xml version="1.0" encoding="UTF-8"?><svg id="a" xmlns="http://www.w3.org/2000/svg" viewBox="0 0 250 250"><line x1="75.42" y1="225.01" x2="224.29" y2="76.15" style="stroke:#000; stroke-miterlimit:10; stroke-width:.25px;"/><line x1="69.75" y1="223.69" x2="224.65" y2="68.79" style="stroke:#000; stroke-miterlimit:10; stroke-width:.25px;"/><line x1="61.55" y1="224.88" x2="224.65" y2="61.79" style="stroke:#000; stroke-miterlimit:10; stroke-width:.25px;"/><line x1="54.83" y1="224.6" x2="224.65" y2="54.79" style="stroke:#000; stroke-miterlimit:10; stroke-width:.25px;"/><line x1="48.08" y1="224.35" x2="224.65" y2="47.79" style="stroke:#000; stroke-miterlimit:10; stroke-width:.25px;"/><line x1="40.35" y1="225.09" x2="224.65" y2="40.79" style="stroke:#000; stroke-miterlimit:10; stroke-width:.25px;"/><line x1="33.55" y1="224.88" x2="224.65" y2="33.79" style="stroke:#000; stroke-miterlimit:10; stroke-width:.25px;"/><line x1="26.55" y1="224.88" x2="224.65" y2="26.79" style="stroke:#000; stroke-miterlimit:10; stroke-width:.25px;"/><line x1="24.65" y1="219.79" x2="219.35" y2="25.09" style="stroke:#000; stroke-miterlimit:10; stroke-width:.25px;"/><line x1="25" y1="212.43" x2="212.27" y2="25.16" style="stroke:#000; stroke-miterlimit:10; stroke-width:.25px;"/><line x1="25" y1="205.43" x2="205.35" y2="25.09" style="stroke:#000; stroke-miterlimit:10; stroke-width:.25px;"/><line x1="25.01" y1="198.42" x2="198.35" y2="25.09" style="stroke:#000; stroke-miterlimit:10; stroke-width:.25px;"/><line x1="25" y1="191.43" x2="191.35" y2="25.09" style="stroke:#000; stroke-miterlimit:10; stroke-width:.25px;"/><line x1="25" y1="184.43" x2="184.35" y2="25.09" style="stroke:#000; stroke-miterlimit:10; stroke-width:.25px;"/><line x1="24.86" y1="177.57" x2="177.57" y2="24.86" style="stroke:#000; stroke-miterlimit:10; stroke-width:.25px;"/><line x1="24.65" y1="170.79" x2="170.6" y2="24.83" style="stroke:#000; stroke-miterlimit:10; stroke-width:.25px;"/><line x1="25" y1="163.43" x2="163.4" y2="25.04" style="stroke:#000; stroke-miterlimit:10; stroke-width:.25px;"/><line x1="24.22" y1="157.22" x2="156.31" y2="25.12" style="stroke:#000; stroke-miterlimit:10; stroke-width:.25px;"/><line x1="25" y1="149.43" x2="149.28" y2="25.15" style="stroke:#000; stroke-miterlimit:10; stroke-width:.25px;"/><line x1="24.16" y1="143.28" x2="142.6" y2="24.83" style="stroke:#000; stroke-miterlimit:10; stroke-width:.25px;"/><line x1="25.04" y1="135.39" x2="135.28" y2="25.15" style="stroke:#000; stroke-miterlimit:10; stroke-width:.25px;"/><line x1="24.6" y1="128.83" x2="128.49" y2="24.95" style="stroke:#000; stroke-miterlimit:10; stroke-width:.25px;"/><line x1="25" y1="121.43" x2="121.49" y2="24.95" style="stroke:#000; stroke-miterlimit:10; stroke-width:.25px;"/><line x1="25" y1="114.43" x2="114.49" y2="24.95" style="stroke:#000; stroke-miterlimit:10; stroke-width:.25px;"/><line x1="25.19" y1="107.25" x2="107.49" y2="24.95" style="stroke:#000; stroke-miterlimit:10; stroke-width:.25px;"/><line x1="25" y1="100.43" x2="100.49" y2="24.95" style="stroke:#000; stroke-miterlimit:10; stroke-width:.25px;"/><line x1="25.1" y1="93.33" x2="93.49" y2="24.95" style="stroke:#000; stroke-miterlimit:10; stroke-width:.25px;"/><line x1="25" y1="86.43" x2="86.49" y2="24.95" style="stroke:#000; stroke-miterlimit:10; stroke-width:.25px;"/><line x1="25" y1="79.43" x2="79.49" y2="24.95" style="stroke:#000; stroke-miterlimit:10; stroke-width:.25px;"/><line x1="25" y1="72.43" x2="72.49" y2="24.95" style="stroke:#000; stroke-miterlimit:10; stroke-width:.25px;"/><line x1="25" y1="65.43" x2="65.49" y2="24.95" style="stroke:#000; stroke-miterlimit:10; stroke-width:.25px;"/><line x1="25" y1="58.43" x2="58.49" y2="24.95" style="stroke:#000; stroke-miterlimit:10; stroke-width:.25px;"/><line x1="24.87" y1="51.57" x2="51.49" y2="24.95" style="stroke:#000; stroke-miterlimit:10; stroke-width:.25px;"/><line x1="25.07" y1="44.36" x2="44.49" y2="24.95" style="stroke:#000; stroke-miterlimit:10; stroke-width:.25px;"/><line x1="24.93" y1="37.51" x2="37.49" y2="24.95" style="stroke:#000; stroke-miterlimit:10; stroke-width:.25px;"/><line x1="25.02" y1="30.42" x2="30.49" y2="24.95" style="stroke:#000; stroke-miterlimit:10; stroke-width:.25px;"/><line x1="82.42" y1="225.01" x2="224.65" y2="82.79" style="stroke:#000; stroke-miterlimit:10; stroke-width:.25px;"/><line x1="89.42" y1="225.01" x2="224.65" y2="89.79" style="stroke:#000; stroke-miterlimit:10; stroke-width:.25px;"/><line x1="96.42" y1="225.01" x2="224.33" y2="97.11" style="stroke:#000; stroke-miterlimit:10; stroke-width:.25px;"/><line x1="103.42" y1="225.01" x2="224.65" y2="103.79" style="stroke:#000; stroke-miterlimit:10; stroke-width:.25px;"/><line x1="110.42" y1="225.01" x2="224.65" y2="110.79" style="stroke:#000; stroke-miterlimit:10; stroke-width:.25px;"/><line x1="117.42" y1="225.01" x2="224.65" y2="117.79" style="stroke:#000; stroke-miterlimit:10; stroke-width:.25px;"/><line x1="124.42" y1="225.01" x2="224.65" y2="124.79" style="stroke:#000; stroke-miterlimit:10; stroke-width:.25px;"/><line x1="131.42" y1="225.01" x2="225.03" y2="131.4" style="stroke:#000; stroke-miterlimit:10; stroke-width:.25px;"/><line x1="138.42" y1="225.01" x2="224.23" y2="139.2" style="stroke:#000; stroke-miterlimit:10; stroke-width:.25px;"/><line x1="145.42" y1="225.01" x2="224.65" y2="145.79" style="stroke:#000; stroke-miterlimit:10; stroke-width:.25px;"/><line x1="152.42" y1="225.01" x2="225.03" y2="152.4" style="stroke:#000; stroke-miterlimit:10; stroke-width:.25px;"/><line x1="159.42" y1="225.01" x2="224.65" y2="159.79" style="stroke:#000; stroke-miterlimit:10; stroke-width:.25px;"/><line x1="166.42" y1="225.01" x2="225.03" y2="166.4" style="stroke:#000; stroke-miterlimit:10; stroke-width:.25px;"/><line x1="173.42" y1="225.01" x2="225.03" y2="173.4" style="stroke:#000; stroke-miterlimit:10; stroke-width:.25px;"/><line x1="180.42" y1="225.01" x2="225.27" y2="180.16" style="stroke:#000; stroke-miterlimit:10; stroke-width:.25px;"/><line x1="187.42" y1="225.01" x2="224.65" y2="187.79" style="stroke:#000; stroke-miterlimit:10; stroke-width:.25px;"/><line x1="194.42" y1="225.01" x2="224.3" y2="195.13" style="stroke:#000; stroke-miterlimit:10; stroke-width:.25px;"/><line x1="201.42" y1="225.01" x2="224.81" y2="201.62" style="stroke:#000; stroke-miterlimit:10; stroke-width:.25px;"/><line x1="208.42" y1="225.01" x2="224.78" y2="208.65" style="stroke:#000; stroke-miterlimit:10; stroke-width:.25px;"/><line x1="215.42" y1="225.01" x2="225.16" y2="215.27" style="stroke:#000; stroke-miterlimit:10; stroke-width:.25px;"/><line x1="222.42" y1="225.01" x2="225.07" y2="222.36" style="stroke:#000; stroke-miterlimit:10; stroke-width:.25px;"/><path d="M127.96,239.82c-.27,.3-.63,.56-1.08,.77s-.91,.31-1.37,.31h-1.64c-.88,0-1.65-.32-2.3-.95s-.98-1.41-.98-2.33v-4.92c0-.91,.32-1.68,.96-2.32s1.41-.96,2.32-.96h4.1c.55,0,.82,.27,.82,.82v7.36c0,.33,.11,.66,.32,1.01,.19,.3,.46,.54,.82,.71,.34,.14,.52,.39,.52,.74,0,.24-.08,.44-.23,.6-.14,.16-.34,.25-.59,.25-.12,0-.23-.03-.34-.08-.54-.21-.98-.54-1.32-1Zm-.81-2.2v-6.56h-3.28c-.46,0-.85,.16-1.17,.47-.16,.16-.27,.33-.35,.53s-.12,.41-.12,.64v4.92c0,.46,.16,.85,.47,1.17,.16,.14,.34,.26,.53,.35,.23,.08,.45,.12,.64,.12h1.64c.45,0,.84-.15,1.16-.46s.48-.7,.48-1.18Z"/><line x1="25" y1="224.88" x2="25" y2="239.88" style="fill:none; stroke:#000; stroke-miterlimit:10; stroke-width:.5px;"/><line x1="25" y1="234.88" x2="115" y2="234.88" style="stroke:#000; stroke-miterlimit:10; stroke-width:.5px;"/><line x1="225.03" y1="224.94" x2="225.03" y2="239.94" style="fill:none; stroke:#000; stroke-miterlimit:10; stroke-width:.5px;"/><line x1="225.03" y1="234.94" x2="135.03" y2="234.94" style="fill:none; stroke:#000; stroke-miterlimit:10; stroke-width:.5px;"/><line x1="15" y1="225" x2="15" y2="140" style="fill:none; stroke:#000; stroke-miterlimit:10; stroke-width:.5px;"/><line x1="25" y1="224.88" x2="10" y2="224.88" style="fill:none; stroke:#000; stroke-miterlimit:10; stroke-width:.5px;"/><line x1="24.65" y1="25.09" x2="9.65" y2="25.09" style="stroke:#000; stroke-miterlimit:10; stroke-width:.5px;"/><line x1="15.09" y1="25.09" x2="15.09" y2="110.09" style="stroke:#000; stroke-miterlimit:10; stroke-width:.5px;"/><path d="M224.37,25.09H24.65V224.88c.21,0,.35,0,.35,0H224.65c0-7.18,0-199.79,0-199.79h-.28Z" style="fill:none; stroke:#000; stroke-miterlimit:10;"/><path d="M18.66,129.15c-.27,.3-.63,.56-1.08,.77s-.91,.31-1.37,.31h-1.64c-.88,0-1.65-.32-2.3-.95s-.98-1.41-.98-2.33v-4.92c0-.91,.32-1.68,.96-2.32s1.41-.96,2.32-.96h4.1c.55,0,.82,.27,.82,.82v7.36c0,.33,.11,.66,.32,1.01,.19,.3,.46,.54,.82,.71,.34,.14,.52,.39,.52,.74,0,.24-.08,.44-.23,.6-.14,.16-.34,.25-.59,.25-.12,0-.23-.03-.34-.08-.54-.21-.98-.54-1.32-1Zm-.81-2.2v-6.56h-3.28c-.46,0-.85,.16-1.17,.47-.16,.16-.27,.33-.35,.53s-.12,.41-.12,.64v4.92c0,.46,.16,.85,.47,1.17,.16,.14,.34,.26,.53,.35,.23,.08,.45,.12,.64,.12h1.64c.45,0,.84-.15,1.16-.46s.48-.7,.48-1.18Z"/></svg>