<?xml version="1.0" encoding="UTF-8"?><svg id="a" xmlns="http://www.w3.org/2000/svg" viewBox="0 0 250 250"><path d="M225.5,225.5H24.5v-31H104.5V55.5H24.5V24.5H225.5v31h-80V194.5h80v31Zm-200-1H224.5v-29h-80V54.5h80V25.5H25.5v29H105.5V195.5H25.5v29Z" style="stroke:#000; stroke-miterlimit:10; stroke-width:.25px;"/><line x1="24.9" y1="198.54" x2="28.3" y2="195.13" style="stroke:#000; stroke-miterlimit:10; stroke-width:.25px;"/><line x1="25.16" y1="205.27" x2="35.3" y2="195.13" style="stroke:#000; stroke-miterlimit:10; stroke-width:.25px;"/><line x1="25.02" y1="212.42" x2="42.3" y2="195.13" style="stroke:#000; stroke-miterlimit:10; stroke-width:.25px;"/><line x1="24.93" y1="219.51" x2="49.3" y2="195.13" style="stroke:#000; stroke-miterlimit:10; stroke-width:.25px;"/><line x1="26.42" y1="225.01" x2="56.3" y2="195.13" style="stroke:#000; stroke-miterlimit:10; stroke-width:.25px;"/><line x1="33.42" y1="225.01" x2="63.3" y2="195.13" style="stroke:#000; stroke-miterlimit:10; stroke-width:.25px;"/><line x1="40.42" y1="225.01" x2="70.3" y2="195.13" style="stroke:#000; stroke-miterlimit:10; stroke-width:.25px;"/><line x1="47.42" y1="225.01" x2="77.3" y2="195.13" style="stroke:#000; stroke-miterlimit:10; stroke-width:.25px;"/><line x1="54.42" y1="225.01" x2="84.3" y2="195.13" style="stroke:#000; stroke-miterlimit:10; stroke-width:.25px;"/><line x1="61.42" y1="225.01" x2="91.3" y2="195.13" style="stroke:#000; stroke-miterlimit:10; stroke-width:.25px;"/><line x1="68.42" y1="225.01" x2="98.3" y2="195.13" style="stroke:#000; stroke-miterlimit:10; stroke-width:.25px;"/><line x1="75.42" y1="225.01" x2="145.28" y2="155.15" style="stroke:#000; stroke-miterlimit:10; stroke-width:.25px;"/><line x1="105.13" y1="188.3" x2="144.96" y2="148.48" style="stroke:#000; stroke-miterlimit:10; stroke-width:.25px;"/><line x1="105.13" y1="181.3" x2="144.96" y2="141.48" style="stroke:#000; stroke-miterlimit:10; stroke-width:.25px;"/><line x1="105.13" y1="174.3" x2="144.96" y2="134.48" style="stroke:#000; stroke-miterlimit:10; stroke-width:.25px;"/><line x1="105.13" y1="167.3" x2="144.96" y2="127.48" style="stroke:#000; stroke-miterlimit:10; stroke-width:.25px;"/><line x1="105.13" y1="160.3" x2="144.96" y2="120.48" style="stroke:#000; stroke-miterlimit:10; stroke-width:.25px;"/><line x1="105.13" y1="153.3" x2="144.96" y2="113.48" style="stroke:#000; stroke-miterlimit:10; stroke-width:.25px;"/><line x1="105.13" y1="146.3" x2="144.96" y2="106.48" style="stroke:#000; stroke-miterlimit:10; stroke-width:.25px;"/><line x1="105.13" y1="139.3" x2="144.96" y2="99.48" style="stroke:#000; stroke-miterlimit:10; stroke-width:.25px;"/><line x1="105.13" y1="132.3" x2="144.96" y2="92.48" style="stroke:#000; stroke-miterlimit:10; stroke-width:.25px;"/><line x1="105.13" y1="125.3" x2="144.96" y2="85.48" style="stroke:#000; stroke-miterlimit:10; stroke-width:.25px;"/><line x1="105.13" y1="118.3" x2="144.96" y2="78.48" style="stroke:#000; stroke-miterlimit:10; stroke-width:.25px;"/><line x1="105.13" y1="111.3" x2="144.96" y2="71.48" style="stroke:#000; stroke-miterlimit:10; stroke-width:.25px;"/><line x1="105.13" y1="104.3" x2="144.96" y2="64.48" style="stroke:#000; stroke-miterlimit:10; stroke-width:.25px;"/><line x1="105.13" y1="97.3" x2="144.96" y2="57.48" style="stroke:#000; stroke-miterlimit:10; stroke-width:.25px;"/><line x1="105.13" y1="90.3" x2="170.6" y2="24.83" style="stroke:#000; stroke-miterlimit:10; stroke-width:.25px;"/><line x1="147.57" y1="54.86" x2="177.6" y2="24.83" style="stroke:#000; stroke-miterlimit:10; stroke-width:.25px;"/><line x1="154.57" y1="54.86" x2="184.6" y2="24.83" style="stroke:#000; stroke-miterlimit:10; stroke-width:.25px;"/><line x1="161.57" y1="54.86" x2="191.6" y2="24.83" style="stroke:#000; stroke-miterlimit:10; stroke-width:.25px;"/><line x1="168.57" y1="54.86" x2="198.6" y2="24.83" style="stroke:#000; stroke-miterlimit:10; stroke-width:.25px;"/><line x1="175.57" y1="54.86" x2="205.6" y2="24.83" style="stroke:#000; stroke-miterlimit:10; stroke-width:.25px;"/><line x1="182.57" y1="54.86" x2="212.6" y2="24.83" style="stroke:#000; stroke-miterlimit:10; stroke-width:.25px;"/><line x1="189.57" y1="54.86" x2="219.6" y2="24.83" style="stroke:#000; stroke-miterlimit:10; stroke-width:.25px;"/><line x1="196.57" y1="54.86" x2="225.07" y2="26.36" style="stroke:#000; stroke-miterlimit:10; stroke-width:.25px;"/><line x1="203.57" y1="54.86" x2="224.75" y2="33.68" style="stroke:#000; stroke-miterlimit:10; stroke-width:.25px;"/><line x1="210.57" y1="54.86" x2="225.13" y2="40.3" style="stroke:#000; stroke-miterlimit:10; stroke-width:.25px;"/><line x1="217.57" y1="54.86" x2="225.21" y2="47.23" style="stroke:#000; stroke-miterlimit:10; stroke-width:.25px;"/><line x1="105.13" y1="83.3" x2="163.4" y2="25.04" style="stroke:#000; stroke-miterlimit:10; stroke-width:.25px;"/><line x1="105.13" y1="76.3" x2="156.31" y2="25.12" style="stroke:#000; stroke-miterlimit:10; stroke-width:.25px;"/><line x1="105.13" y1="69.3" x2="149.28" y2="25.15" style="stroke:#000; stroke-miterlimit:10; stroke-width:.25px;"/><line x1="105.13" y1="62.3" x2="142.6" y2="24.83" style="stroke:#000; stroke-miterlimit:10; stroke-width:.25px;"/><line x1="105.13" y1="55.3" x2="135.28" y2="25.15" style="stroke:#000; stroke-miterlimit:10; stroke-width:.25px;"/><line x1="98.43" y1="55.01" x2="128.49" y2="24.95" style="stroke:#000; stroke-miterlimit:10; stroke-width:.25px;"/><line x1="91.43" y1="55.01" x2="121.49" y2="24.95" style="stroke:#000; stroke-miterlimit:10; stroke-width:.25px;"/><line x1="84.43" y1="55.01" x2="114.49" y2="24.95" style="stroke:#000; stroke-miterlimit:10; stroke-width:.25px;"/><line x1="77.43" y1="55.01" x2="107.49" y2="24.95" style="stroke:#000; stroke-miterlimit:10; stroke-width:.25px;"/><line x1="70.43" y1="55.01" x2="100.49" y2="24.95" style="stroke:#000; stroke-miterlimit:10; stroke-width:.25px;"/><line x1="63.43" y1="55.01" x2="93.49" y2="24.95" style="stroke:#000; stroke-miterlimit:10; stroke-width:.25px;"/><line x1="56.43" y1="55.01" x2="86.49" y2="24.95" style="stroke:#000; stroke-miterlimit:10; stroke-width:.25px;"/><line x1="49.43" y1="55.01" x2="79.49" y2="24.95" style="stroke:#000; stroke-miterlimit:10; stroke-width:.25px;"/><line x1="42.43" y1="55.01" x2="72.49" y2="24.95" style="stroke:#000; stroke-miterlimit:10; stroke-width:.25px;"/><line x1="35.43" y1="55.01" x2="65.49" y2="24.95" style="stroke:#000; stroke-miterlimit:10; stroke-width:.25px;"/><line x1="28.43" y1="55.01" x2="58.49" y2="24.95" style="stroke:#000; stroke-miterlimit:10; stroke-width:.25px;"/><line x1="24.87" y1="51.57" x2="51.49" y2="24.95" style="stroke:#000; stroke-miterlimit:10; stroke-width:.25px;"/><line x1="25.07" y1="44.36" x2="44.49" y2="24.95" style="stroke:#000; stroke-miterlimit:10; stroke-width:.25px;"/><line x1="24.93" y1="37.51" x2="37.49" y2="24.95" style="stroke:#000; stroke-miterlimit:10; stroke-width:.25px;"/><line x1="25.02" y1="30.42" x2="30.49" y2="24.95" style="stroke:#000; stroke-miterlimit:10; stroke-width:.25px;"/><line x1="82.42" y1="225.01" x2="145.02" y2="162.42" style="stroke:#000; stroke-miterlimit:10; stroke-width:.25px;"/><line x1="89.42" y1="225.01" x2="145.16" y2="169.27" style="stroke:#000; stroke-miterlimit:10; stroke-width:.25px;"/><line x1="96.42" y1="225.01" x2="144.96" y2="176.48" style="stroke:#000; stroke-miterlimit:10; stroke-width:.25px;"/><line x1="103.42" y1="225.01" x2="145.28" y2="183.15" style="stroke:#000; stroke-miterlimit:10; stroke-width:.25px;"/><line x1="110.42" y1="225.01" x2="145.07" y2="190.36" style="stroke:#000; stroke-miterlimit:10; stroke-width:.25px;"/><line x1="117.42" y1="225.01" x2="147.3" y2="195.13" style="stroke:#000; stroke-miterlimit:10; stroke-width:.25px;"/><line x1="124.42" y1="225.01" x2="154.3" y2="195.13" style="stroke:#000; stroke-miterlimit:10; stroke-width:.25px;"/><line x1="131.42" y1="225.01" x2="161.3" y2="195.13" style="stroke:#000; stroke-miterlimit:10; stroke-width:.25px;"/><line x1="138.42" y1="225.01" x2="168.3" y2="195.13" style="stroke:#000; stroke-miterlimit:10; stroke-width:.25px;"/><line x1="145.42" y1="225.01" x2="175.3" y2="195.13" style="stroke:#000; stroke-miterlimit:10; stroke-width:.25px;"/><line x1="152.42" y1="225.01" x2="182.3" y2="195.13" style="stroke:#000; stroke-miterlimit:10; stroke-width:.25px;"/><line x1="159.42" y1="225.01" x2="189.3" y2="195.13" style="stroke:#000; stroke-miterlimit:10; stroke-width:.25px;"/><line x1="166.42" y1="225.01" x2="196.3" y2="195.13" style="stroke:#000; stroke-miterlimit:10; stroke-width:.25px;"/><line x1="173.42" y1="225.01" x2="203.3" y2="195.13" style="stroke:#000; stroke-miterlimit:10; stroke-width:.25px;"/><line x1="180.42" y1="225.01" x2="210.3" y2="195.13" style="stroke:#000; stroke-miterlimit:10; stroke-width:.25px;"/><line x1="187.42" y1="225.01" x2="217.3" y2="195.13" style="stroke:#000; stroke-miterlimit:10; stroke-width:.25px;"/><line x1="194.42" y1="225.01" x2="224.3" y2="195.13" style="stroke:#000; stroke-miterlimit:10; stroke-width:.25px;"/><line x1="201.42" y1="225.01" x2="224.81" y2="201.62" style="stroke:#000; stroke-miterlimit:10; stroke-width:.25px;"/><line x1="208.42" y1="225.01" x2="224.78" y2="208.65" style="stroke:#000; stroke-miterlimit:10; stroke-width:.25px;"/><line x1="215.42" y1="225.01" x2="225.16" y2="215.27" style="stroke:#000; stroke-miterlimit:10; stroke-width:.25px;"/><line x1="222.42" y1="225.01" x2="225.07" y2="222.36" style="stroke:#000; stroke-miterlimit:10; stroke-width:.25px;"/><path d="M127.96,239.82c-.27,.3-.63,.56-1.08,.77s-.91,.31-1.37,.31h-1.64c-.88,0-1.65-.32-2.3-.95s-.98-1.41-.98-2.33v-4.92c0-.91,.32-1.68,.96-2.32s1.41-.96,2.32-.96h4.1c.55,0,.82,.27,.82,.82v7.36c0,.33,.11,.66,.32,1.01,.19,.3,.46,.54,.82,.71,.34,.14,.52,.39,.52,.74,0,.24-.08,.44-.23,.6-.14,.16-.34,.25-.59,.25-.12,0-.23-.03-.34-.08-.54-.21-.98-.54-1.32-1Zm-.81-2.2v-6.56h-3.28c-.46,0-.85,.16-1.17,.47-.16,.16-.27,.33-.35,.53s-.12,.41-.12,.64v4.92c0,.46,.16,.85,.47,1.17,.16,.14,.34,.26,.53,.35,.23,.08,.45,.12,.64,.12h1.64c.45,0,.84-.15,1.16-.46s.48-.7,.48-1.18Z"/><path d="M12.72,121.18h3.28c.89,0,1.66,.32,2.31,.96s.97,1.41,.97,2.33v4.92c0,.9-.32,1.67-.96,2.31s-1.41,.97-2.32,.97h-4.1c-.55,0-.82-.27-.82-.82v-14.77c0-.22,.08-.42,.25-.61,.16-.14,.36-.21,.57-.21s.4,.07,.57,.21,.25,.34,.25,.62v4.1Zm0,1.64v8.2h3.28c.45,0,.84-.15,1.16-.46s.48-.7,.48-1.18v-4.92c0-.46-.15-.85-.46-1.17s-.7-.47-1.18-.47h-3.28Z"/><line x1="25" y1="224.88" x2="25" y2="239.88" style="fill:none; stroke:#000; stroke-miterlimit:10; stroke-width:.5px;"/><line x1="25" y1="234.88" x2="115" y2="234.88" style="stroke:#000; stroke-miterlimit:10; stroke-width:.5px;"/><line x1="225.03" y1="224.94" x2="225.03" y2="239.94" style="fill:none; stroke:#000; stroke-miterlimit:10; stroke-width:.5px;"/><line x1="225.03" y1="234.94" x2="135.03" y2="234.94" style="fill:none; stroke:#000; stroke-miterlimit:10; stroke-width:.5px;"/><line x1="15" y1="225" x2="15" y2="140" style="fill:none; stroke:#000; stroke-miterlimit:10; stroke-width:.5px;"/><line x1="25" y1="224.88" x2="10" y2="224.88" style="fill:none; stroke:#000; stroke-miterlimit:10; stroke-width:.5px;"/><line x1="24.65" y1="25.09" x2="9.65" y2="25.09" style="stroke:#000; stroke-miterlimit:10; stroke-width:.5px;"/><line x1="15.09" y1="25.09" x2="15.09" y2="110.09" style="stroke:#000; stroke-miterlimit:10; stroke-width:.5px;"/><line x1="185.24" y1="229.94" x2="185.24" y2="159.94" style="stroke:#000; stroke-miterlimit:10; stroke-width:.5px;"/><path d="M188.56,147.53c0,.23-.09,.42-.26,.59s-.35,.25-.52,.25l-.4-.09c-.98-.47-1.91-.7-2.79-.7s-1.67,.21-2.3,.63c-.16,.13-.23,.29-.23,.48,0,.21,.08,.36,.23,.46l5.24,3.45c.34,.27,.59,.57,.75,.92,.16,.35,.25,.69,.25,1.01,0,.37-.09,.73-.26,1.09-.18,.36-.42,.63-.72,.82-.93,.63-2,.94-3.2,.94s-2.32-.3-3.4-.91c-.3-.18-.45-.41-.45-.7l.05-.31,.08-.18,.11-.13c.17-.17,.36-.26,.58-.26l.22,.04,.2,.07c.84,.48,1.71,.72,2.61,.72,.81,0,1.58-.23,2.3-.68,.18-.11,.27-.29,.27-.54s-.09-.45-.27-.56l-5.25-3.45c-.3-.2-.52-.46-.66-.79-.1-.19-.17-.35-.19-.49s-.04-.32-.04-.55c0-.34,.08-.68,.23-1.02,.21-.39,.43-.65,.66-.79,.91-.63,1.99-.94,3.22-.94,.54,0,1.12,.08,1.76,.25s1.21,.37,1.75,.62c.3,.2,.46,.45,.46,.73Z"/><line x1="149.5" y1="75.65" x2="69.5" y2="75.65" style="fill:none; stroke:#000; stroke-miterlimit:10; stroke-width:.5px;"/><g><path d="M54.54,74.05c0,.23-.09,.42-.26,.59s-.35,.25-.52,.25l-.4-.09c-.98-.47-1.91-.7-2.79-.7s-1.67,.21-2.3,.63c-.16,.13-.23,.29-.23,.48,0,.21,.08,.36,.23,.46l5.24,3.45c.34,.27,.59,.57,.75,.92s.25,.69,.25,1.01c0,.37-.09,.73-.26,1.09s-.42,.63-.72,.82c-.93,.63-2,.94-3.2,.94s-2.32-.3-3.4-.91c-.3-.18-.45-.41-.45-.69l.05-.31,.08-.18,.11-.13c.17-.17,.36-.26,.58-.26l.22,.04,.2,.07c.84,.48,1.71,.73,2.61,.73,.81,0,1.58-.23,2.3-.68,.18-.11,.27-.29,.27-.54s-.09-.45-.27-.56l-5.25-3.45c-.3-.2-.52-.46-.66-.79-.1-.19-.17-.35-.19-.49-.03-.14-.04-.32-.04-.55,0-.34,.08-.68,.23-1.02,.21-.39,.43-.65,.66-.79,.91-.63,1.99-.94,3.22-.94,.54,0,1.12,.08,1.76,.25s1.21,.37,1.75,.62c.3,.2,.46,.45,.46,.73Z"/><path d="M65.46,73.82l-5.3,8.45h5.09c.23,0,.42,.08,.58,.25s.24,.36,.24,.57c0,.19-.07,.37-.21,.55s-.34,.27-.62,.27h-6.56c-.59,0-.89-.22-.89-.66,0-.17,.07-.38,.2-.61l6.05-9.66c.2-.43,.3-.84,.3-1.23,0-.7-.27-1.31-.82-1.83-.26-.24-.56-.43-.9-.57-.34-.14-.71-.21-1.11-.21s-.81,.11-1.19,.33c-.38,.24-.7,.55-.95,.94-.06,.1-.17,.2-.32,.29l-.36,.08c-.21,0-.4-.08-.58-.23s-.26-.34-.26-.57c0-.11,.05-.27,.14-.47,.38-.59,.88-1.07,1.52-1.44,.31-.18,.63-.32,.95-.42s.63-.15,.94-.15c1.28,0,2.37,.42,3.25,1.27s1.33,1.86,1.33,3.03c0,.67-.18,1.34-.53,2.02Z"/></g></svg>