<?xml version="1.0" encoding="UTF-8"?><svg id="a" xmlns="http://www.w3.org/2000/svg" viewBox="0 0 250 250"><line x1="223.43" y1="175" x2="225.03" y2="173.4" style="fill:none; stroke:#000; stroke-miterlimit:10; stroke-width:.25px;"/><path d="M127.44,189.84c-.27,.3-.63,.56-1.08,.77-.46,.21-.91,.31-1.37,.31h-1.64c-.88,0-1.65-.32-2.3-.95s-.98-1.41-.98-2.33v-4.92c0-.91,.32-1.68,.96-2.32s1.41-.96,2.32-.96h4.1c.55,0,.82,.27,.82,.82v7.36c0,.33,.11,.66,.32,1.01,.19,.3,.46,.54,.82,.71,.34,.14,.52,.39,.52,.74,0,.24-.08,.44-.23,.6-.14,.16-.34,.25-.59,.25-.12,0-.23-.03-.34-.08-.54-.21-.98-.54-1.32-1h-.01Zm-.81-2.21v-6.56h-3.28c-.46,0-.85,.16-1.17,.47-.16,.16-.27,.33-.35,.53s-.12,.41-.12,.64v4.92c0,.46,.16,.85,.47,1.17,.16,.14,.34,.26,.53,.35,.23,.08,.45,.12,.64,.12h1.64c.45,0,.84-.15,1.16-.46,.32-.3,.48-.7,.48-1.18Z"/><path d="M12.72,121.18h3.28c.89,0,1.66,.32,2.31,.96s.97,1.41,.97,2.33v4.92c0,.9-.32,1.67-.96,2.31s-1.41,.97-2.32,.97h-4.1c-.55,0-.82-.27-.82-.82v-14.77c0-.22,.08-.42,.25-.61,.16-.14,.36-.21,.57-.21s.4,.07,.57,.21,.25,.34,.25,.62v4.1h0Zm0,1.63v8.2h3.28c.45,0,.84-.15,1.16-.46s.48-.7,.48-1.18v-4.92c0-.46-.15-.85-.46-1.17s-.7-.47-1.18-.47c0,0-3.28,0-3.28,0Z"/><line x1="24.49" y1="174.9" x2="24.49" y2="189.9" style="fill:none; stroke:#000; stroke-miterlimit:10; stroke-width:.5px;"/><line x1="24.49" y1="184.9" x2="114.49" y2="184.9" style="fill:none; stroke:#000; stroke-miterlimit:10; stroke-width:.5px;"/><line x1="224.51" y1="174.96" x2="224.51" y2="189.96" style="fill:none; stroke:#000; stroke-miterlimit:10; stroke-width:.5px;"/><line x1="224.51" y1="184.96" x2="134.51" y2="184.96" style="fill:none; stroke:#000; stroke-miterlimit:10; stroke-width:.5px;"/><line x1="15" y1="175" x2="15" y2="140" style="fill:none; stroke:#000; stroke-miterlimit:10; stroke-width:.5px;"/><line x1="24.5" y1="175" x2="9.5" y2="175" style="fill:none; stroke:#000; stroke-miterlimit:10; stroke-width:.5px;"/><line x1="24.5" y1="75" x2="9.5" y2="75" style="fill:none; stroke:#000; stroke-miterlimit:10; stroke-width:.5px;"/><line x1="15" y1="75" x2="15" y2="110" style="fill:none; stroke:#000; stroke-miterlimit:10; stroke-width:.5px;"/><rect x="24.5" y="75" width="200" height="100" style="fill:none; stroke:#000; stroke-miterlimit:10;"/></svg>