<?xml version="1.0" encoding="UTF-8"?><svg id="a" xmlns="http://www.w3.org/2000/svg" viewBox="0 0 250 250"><path d="M127.15,235.42v-4.1c0-.22,.08-.42,.25-.61,.16-.14,.36-.21,.57-.21s.4,.07,.57,.21,.25,.34,.25,.62v14.77c0,.55-.27,.82-.82,.82h-4.1c-.88,0-1.65-.32-2.3-.95s-.98-1.41-.98-2.33v-4.92c0-.91,.32-1.68,.96-2.32s1.41-.96,2.32-.96h3.28Zm0,1.64h-3.28c-.46,0-.85,.16-1.17,.47-.16,.16-.27,.33-.35,.53s-.12,.41-.12,.64v4.92c0,.46,.16,.85,.47,1.17,.16,.14,.34,.26,.53,.35,.23,.08,.45,.12,.64,.12h3.28v-8.2Z"/><line x1="38.4" y1="175.29" x2="38.4" y2="240.29" style="fill:none; stroke:#000; stroke-miterlimit:10; stroke-width:.5px;"/><line x1="38.4" y1="234.88" x2="113.4" y2="234.88" style="stroke:#000; stroke-miterlimit:10; stroke-width:.5px;"/><line x1="211.6" y1="175.29" x2="211.6" y2="240.29" style="fill:none; stroke:#000; stroke-miterlimit:10; stroke-width:.5px;"/><line x1="211.6" y1="234.88" x2="136.6" y2="234.88" style="fill:none; stroke:#000; stroke-miterlimit:10; stroke-width:.5px;"/><polygon points="38.4 75 125 25 211.6 75 211.6 175 125 225 38.4 175 38.4 75" style="fill:none; stroke:#000; stroke-miterlimit:10;"/><line x1="125" y1="225" x2="211.6" y2="138.4" style="fill:none; stroke:#000; stroke-miterlimit:10; stroke-width:.25px;"/><line x1="120.58" y1="222.42" x2="211.6" y2="131.4" style="fill:none; stroke:#000; stroke-miterlimit:10; stroke-width:.25px;"/><line x1="116.12" y1="219.88" x2="211.6" y2="124.4" style="fill:none; stroke:#000; stroke-miterlimit:10; stroke-width:.25px;"/><line x1="111.69" y1="217.31" x2="211.6" y2="117.4" style="fill:none; stroke:#000; stroke-miterlimit:10; stroke-width:.25px;"/><line x1="107.25" y1="214.75" x2="211.6" y2="110.4" style="fill:none; stroke:#000; stroke-miterlimit:10; stroke-width:.25px;"/><line x1="102.61" y1="212.39" x2="211.6" y2="103.4" style="fill:none; stroke:#000; stroke-miterlimit:10; stroke-width:.25px;"/><line x1="98.37" y1="209.63" x2="211.6" y2="96.4" style="fill:none; stroke:#000; stroke-miterlimit:10; stroke-width:.25px;"/><line x1="93.94" y1="207.06" x2="211.6" y2="89.4" style="fill:none; stroke:#000; stroke-miterlimit:10; stroke-width:.25px;"/><line x1="89.5" y1="204.5" x2="211.6" y2="82.4" style="fill:none; stroke:#000; stroke-miterlimit:10; stroke-width:.25px;"/><line x1="85.06" y1="201.94" x2="211.6" y2="75.4" style="fill:none; stroke:#000; stroke-miterlimit:10; stroke-width:.25px;"/><line x1="80.62" y1="199.38" x2="207.68" y2="72.32" style="fill:none; stroke:#000; stroke-miterlimit:10; stroke-width:.25px;"/><line x1="76.18" y1="196.82" x2="202.98" y2="70.02" style="fill:none; stroke:#000; stroke-miterlimit:10; stroke-width:.25px;"/><line x1="71.75" y1="194.25" x2="198.54" y2="67.46" style="fill:none; stroke:#000; stroke-miterlimit:10; stroke-width:.25px;"/><line x1="67.55" y1="191.45" x2="194.1" y2="64.9" style="fill:none; stroke:#000; stroke-miterlimit:10; stroke-width:.25px;"/><line x1="62.87" y1="189.13" x2="189.67" y2="62.33" style="fill:none; stroke:#000; stroke-miterlimit:10; stroke-width:.25px;"/><line x1="58.43" y1="186.57" x2="185.23" y2="59.77" style="fill:none; stroke:#000; stroke-miterlimit:10; stroke-width:.25px;"/><line x1="53.99" y1="184.01" x2="180.79" y2="57.21" style="fill:none; stroke:#000; stroke-miterlimit:10; stroke-width:.25px;"/><line x1="49.56" y1="181.44" x2="176.35" y2="54.65" style="fill:none; stroke:#000; stroke-miterlimit:10; stroke-width:.25px;"/><line x1="45.12" y1="178.88" x2="171.91" y2="52.09" style="fill:none; stroke:#000; stroke-miterlimit:10; stroke-width:.25px;"/><line x1="40.77" y1="176.23" x2="167.48" y2="49.52" style="fill:none; stroke:#000; stroke-miterlimit:10; stroke-width:.25px;"/><line x1="38.4" y1="171.6" x2="163.04" y2="46.96" style="fill:none; stroke:#000; stroke-miterlimit:10; stroke-width:.25px;"/><line x1="38.4" y1="164.6" x2="158.6" y2="44.4" style="fill:none; stroke:#000; stroke-miterlimit:10; stroke-width:.25px;"/><line x1="38.4" y1="157.6" x2="154.16" y2="41.84" style="fill:none; stroke:#000; stroke-miterlimit:10; stroke-width:.25px;"/><line x1="38.4" y1="150.6" x2="149.73" y2="39.27" style="fill:none; stroke:#000; stroke-miterlimit:10; stroke-width:.25px;"/><line x1="38.4" y1="143.6" x2="145.29" y2="36.71" style="fill:none; stroke:#000; stroke-miterlimit:10; stroke-width:.25px;"/><line x1="38.4" y1="136.6" x2="140.85" y2="34.15" style="fill:none; stroke:#000; stroke-miterlimit:10; stroke-width:.25px;"/><line x1="38.4" y1="129.6" x2="136.41" y2="31.59" style="fill:none; stroke:#000; stroke-miterlimit:10; stroke-width:.25px;"/><line x1="38.4" y1="122.6" x2="131.97" y2="29.03" style="fill:none; stroke:#000; stroke-miterlimit:10; stroke-width:.25px;"/><line x1="38.4" y1="115.6" x2="127.54" y2="26.46" style="fill:none; stroke:#000; stroke-miterlimit:10; stroke-width:.25px;"/><line x1="38.4" y1="108.6" x2="117.39" y2="29.61" style="fill:none; stroke:#000; stroke-miterlimit:10; stroke-width:.25px;"/><line x1="38.4" y1="101.6" x2="101.34" y2="38.66" style="fill:none; stroke:#000; stroke-miterlimit:10; stroke-width:.25px;"/><line x1="38.4" y1="94.6" x2="84.78" y2="48.22" style="fill:none; stroke:#000; stroke-miterlimit:10; stroke-width:.25px;"/><line x1="38.4" y1="87.6" x2="68.22" y2="57.78" style="fill:none; stroke:#000; stroke-miterlimit:10; stroke-width:.25px;"/><line x1="38.4" y1="80.6" x2="50.85" y2="68.15" style="fill:none; stroke:#000; stroke-miterlimit:10; stroke-width:.25px;"/><line x1="141.56" y1="215.44" x2="211.6" y2="145.4" style="fill:none; stroke:#000; stroke-miterlimit:10; stroke-width:.25px;"/><line x1="158.12" y1="205.88" x2="211.6" y2="152.4" style="fill:none; stroke:#000; stroke-miterlimit:10; stroke-width:.25px;"/><line x1="175.53" y1="195.47" x2="211.6" y2="159.4" style="fill:none; stroke:#000; stroke-miterlimit:10; stroke-width:.25px;"/><line x1="191.25" y1="186.75" x2="211.6" y2="166.4" style="fill:none; stroke:#000; stroke-miterlimit:10; stroke-width:.25px;"/><line x1="207.81" y1="177.19" x2="211.6" y2="173.4" style="fill:none; stroke:#000; stroke-miterlimit:10; stroke-width:.25px;"/></svg>