<?xml version="1.0" encoding="UTF-8"?><svg id="a" xmlns="http://www.w3.org/2000/svg" viewBox="0 0 250 250"><line x1="84.16" y1="216.28" x2="216.23" y2="84.21" style="stroke:#000; stroke-miterlimit:10; stroke-width:.25px;"/><line x1="79.25" y1="214.19" x2="214.03" y2="79.41" style="stroke:#000; stroke-miterlimit:10; stroke-width:.25px;"/><line x1="74.73" y1="211.7" x2="211.55" y2="74.88" style="stroke:#000; stroke-miterlimit:10; stroke-width:.25px;"/><line x1="70.24" y1="209.2" x2="208.89" y2="70.55" style="stroke:#000; stroke-miterlimit:10; stroke-width:.25px;"/><line x1="66.28" y1="206.16" x2="206.04" y2="66.4" style="stroke:#000; stroke-miterlimit:10; stroke-width:.25px;"/><line x1="62.52" y1="202.92" x2="203.01" y2="62.43" style="stroke:#000; stroke-miterlimit:10; stroke-width:.25px;"/><line x1="58.61" y1="199.82" x2="199.8" y2="58.63" style="stroke:#000; stroke-miterlimit:10; stroke-width:.25px;"/><line x1="55.01" y1="196.42" x2="196.42" y2="55.01" style="stroke:#000; stroke-miterlimit:10; stroke-width:.25px;"/><line x1="51.56" y1="192.87" x2="192.87" y2="51.56" style="stroke:#000; stroke-miterlimit:10; stroke-width:.25px;"/><line x1="48.29" y1="189.15" x2="189.18" y2="48.25" style="stroke:#000; stroke-miterlimit:10; stroke-width:.25px;"/><line x1="45.18" y1="185.25" x2="185.25" y2="45.18" style="stroke:#000; stroke-miterlimit:10; stroke-width:.25px;"/><line x1="42.17" y1="181.26" x2="181.18" y2="42.26" style="stroke:#000; stroke-miterlimit:10; stroke-width:.25px;"/><line x1="39.39" y1="177.05" x2="176.92" y2="39.52" style="stroke:#000; stroke-miterlimit:10; stroke-width:.25px;"/><line x1="36.96" y1="172.47" x2="172.47" y2="36.96" style="stroke:#000; stroke-miterlimit:10; stroke-width:.25px;"/><line x1="34.72" y1="167.72" x2="167.72" y2="34.72" style="stroke:#000; stroke-miterlimit:10; stroke-width:.25px;"/><line x1="32.1" y1="163.33" x2="162.97" y2="32.46" style="stroke:#000; stroke-miterlimit:10; stroke-width:.25px;"/><line x1="30.54" y1="157.9" x2="157.9" y2="30.54" style="stroke:#000; stroke-miterlimit:10; stroke-width:.25px;"/><line x1="28.85" y1="152.58" x2="152.58" y2="28.85" style="stroke:#000; stroke-miterlimit:10; stroke-width:.25px;"/><line x1="27.43" y1="147" x2="147" y2="27.43" style="stroke:#000; stroke-miterlimit:10; stroke-width:.25px;"/><line x1="26.3" y1="141.14" x2="141.14" y2="26.3" style="stroke:#000; stroke-miterlimit:10; stroke-width:.25px;"/><line x1="25.49" y1="134.95" x2="135.28" y2="25.15" style="stroke:#000; stroke-miterlimit:10; stroke-width:.25px;"/><line x1="25.34" y1="128.09" x2="128.49" y2="24.95" style="stroke:#000; stroke-miterlimit:10; stroke-width:.25px;"/><line x1="25.07" y1="121.37" x2="121.37" y2="25.06" style="stroke:#000; stroke-miterlimit:10; stroke-width:.25px;"/><line x1="26.04" y1="113.39" x2="113.82" y2="25.62" style="stroke:#000; stroke-miterlimit:10; stroke-width:.25px;"/><line x1="26.89" y1="105.54" x2="105.39" y2="27.04" style="stroke:#000; stroke-miterlimit:10; stroke-width:.25px;"/><line x1="30" y1="95.43" x2="96.24" y2="29.2" style="stroke:#000; stroke-miterlimit:10; stroke-width:.25px;"/><line x1="33.23" y1="85.2" x2="84.96" y2="33.47" style="stroke:#000; stroke-miterlimit:10; stroke-width:.25px;"/><line x1="42.31" y1="69.13" x2="69.39" y2="42.04" style="stroke:#000; stroke-miterlimit:10; stroke-width:.25px;"/><line x1="89.08" y1="218.35" x2="218.35" y2="89.08" style="stroke:#000; stroke-miterlimit:10; stroke-width:.25px;"/><line x1="94.25" y1="220.18" x2="220.18" y2="94.25" style="stroke:#000; stroke-miterlimit:10; stroke-width:.25px;"/><line x1="99.67" y1="221.76" x2="221.76" y2="99.67" style="stroke:#000; stroke-miterlimit:10; stroke-width:.25px;"/><line x1="105.36" y1="223.07" x2="223.07" y2="105.36" style="stroke:#000; stroke-miterlimit:10; stroke-width:.25px;"/><line x1="111.36" y1="224.08" x2="224.08" y2="111.36" style="stroke:#000; stroke-miterlimit:10; stroke-width:.25px;"/><line x1="117.42" y1="225.01" x2="225.03" y2="117.4" style="stroke:#000; stroke-miterlimit:10; stroke-width:.25px;"/><line x1="124.42" y1="225.01" x2="225" y2="124.44" style="stroke:#000; stroke-miterlimit:10; stroke-width:.25px;"/><line x1="131.42" y1="225.01" x2="225.03" y2="131.4" style="stroke:#000; stroke-miterlimit:10; stroke-width:.25px;"/><line x1="139.36" y1="224.07" x2="223.96" y2="139.47" style="stroke:#000; stroke-miterlimit:10; stroke-width:.25px;"/><line x1="148.12" y1="222.31" x2="222.31" y2="148.12" style="stroke:#000; stroke-miterlimit:10; stroke-width:.25px;"/><line x1="158.01" y1="219.42" x2="219.42" y2="158.01" style="stroke:#000; stroke-miterlimit:10; stroke-width:.25px;"/><line x1="170.22" y1="214.21" x2="214.21" y2="170.22" style="stroke:#000; stroke-miterlimit:10; stroke-width:.25px;"/><line x1="190.69" y1="200.75" x2="201.35" y2="190.08" style="stroke:#000; stroke-miterlimit:10; stroke-width:.25px;"/><path d="M127.15,235.42v-4.1c0-.22,.08-.42,.25-.61,.16-.14,.36-.21,.57-.21s.4,.07,.57,.21,.25,.34,.25,.62v14.77c0,.55-.27,.82-.82,.82h-4.1c-.88,0-1.65-.32-2.3-.95s-.98-1.41-.98-2.33v-4.92c0-.91,.32-1.68,.96-2.32s1.41-.96,2.32-.96h3.28Zm0,1.64h-3.28c-.46,0-.85,.16-1.17,.47-.16,.16-.27,.33-.35,.53s-.12,.41-.12,.64v4.92c0,.46,.16,.85,.47,1.17,.16,.14,.34,.26,.53,.35,.23,.08,.45,.12,.64,.12h3.28v-8.2Z"/><line x1="25" y1="126.39" x2="25" y2="241.39" style="fill:none; stroke:#000; stroke-miterlimit:10; stroke-width:.5px;"/><line x1="25" y1="234.88" x2="115" y2="234.88" style="stroke:#000; stroke-miterlimit:10; stroke-width:.5px;"/><line x1="225.03" y1="125" x2="225.03" y2="240" style="fill:none; stroke:#000; stroke-miterlimit:10; stroke-width:.5px;"/><line x1="225.03" y1="234.94" x2="135.03" y2="234.94" style="fill:none; stroke:#000; stroke-miterlimit:10; stroke-width:.5px;"/><circle cx="125" cy="125" r="100" style="fill:none; stroke:#000; stroke-miterlimit:10;"/></svg>