<?xml version="1.0" encoding="UTF-8"?><svg id="a" xmlns="http://www.w3.org/2000/svg" viewBox="0 0 250 250"><line x1="24.9" y1="198.54" x2="54.69" y2="168.74" style="stroke:#000; stroke-miterlimit:10; stroke-width:.25px;"/><line x1="24.9" y1="191.54" x2="54.69" y2="161.74" style="stroke:#000; stroke-miterlimit:10; stroke-width:.25px;"/><line x1="24.9" y1="184.54" x2="54.69" y2="154.74" style="stroke:#000; stroke-miterlimit:10; stroke-width:.25px;"/><line x1="24.9" y1="177.54" x2="54.69" y2="147.74" style="stroke:#000; stroke-miterlimit:10; stroke-width:.25px;"/><line x1="24.9" y1="170.54" x2="54.69" y2="140.74" style="stroke:#000; stroke-miterlimit:10; stroke-width:.25px;"/><line x1="24.9" y1="163.54" x2="54.69" y2="133.74" style="stroke:#000; stroke-miterlimit:10; stroke-width:.25px;"/><line x1="24.9" y1="156.54" x2="54.69" y2="126.74" style="stroke:#000; stroke-miterlimit:10; stroke-width:.25px;"/><line x1="24.9" y1="149.54" x2="54.69" y2="119.74" style="stroke:#000; stroke-miterlimit:10; stroke-width:.25px;"/><line x1="24.9" y1="142.54" x2="54.69" y2="112.74" style="stroke:#000; stroke-miterlimit:10; stroke-width:.25px;"/><line x1="24.9" y1="135.54" x2="54.69" y2="105.74" style="stroke:#000; stroke-miterlimit:10; stroke-width:.25px;"/><line x1="24.9" y1="128.54" x2="54.69" y2="98.74" style="stroke:#000; stroke-miterlimit:10; stroke-width:.25px;"/><line x1="24.9" y1="121.54" x2="54.69" y2="91.74" style="stroke:#000; stroke-miterlimit:10; stroke-width:.25px;"/><line x1="24.9" y1="114.54" x2="54.69" y2="84.74" style="stroke:#000; stroke-miterlimit:10; stroke-width:.25px;"/><line x1="24.9" y1="107.54" x2="54.69" y2="77.74" style="stroke:#000; stroke-miterlimit:10; stroke-width:.25px;"/><line x1="24.9" y1="100.54" x2="54.69" y2="70.74" style="stroke:#000; stroke-miterlimit:10; stroke-width:.25px;"/><line x1="24.9" y1="93.54" x2="54.69" y2="63.74" style="stroke:#000; stroke-miterlimit:10; stroke-width:.25px;"/><line x1="24.9" y1="86.54" x2="54.69" y2="56.74" style="stroke:#000; stroke-miterlimit:10; stroke-width:.25px;"/><line x1="25.16" y1="205.27" x2="54.63" y2="175.81" style="stroke:#000; stroke-miterlimit:10; stroke-width:.25px;"/><line x1="25.02" y1="212.42" x2="54.57" y2="182.86" style="stroke:#000; stroke-miterlimit:10; stroke-width:.25px;"/><line x1="24.93" y1="219.51" x2="55.03" y2="189.4" style="stroke:#000; stroke-miterlimit:10; stroke-width:.25px;"/><line x1="26.42" y1="225.01" x2="56.3" y2="195.13" style="stroke:#000; stroke-miterlimit:10; stroke-width:.25px;"/><line x1="33.42" y1="225.01" x2="63.3" y2="195.13" style="stroke:#000; stroke-miterlimit:10; stroke-width:.25px;"/><line x1="40.42" y1="225.01" x2="70.3" y2="195.13" style="stroke:#000; stroke-miterlimit:10; stroke-width:.25px;"/><line x1="47.42" y1="225.01" x2="77.3" y2="195.13" style="stroke:#000; stroke-miterlimit:10; stroke-width:.25px;"/><line x1="54.42" y1="225.01" x2="84.3" y2="195.13" style="stroke:#000; stroke-miterlimit:10; stroke-width:.25px;"/><line x1="61.42" y1="225.01" x2="91.3" y2="195.13" style="stroke:#000; stroke-miterlimit:10; stroke-width:.25px;"/><line x1="68.42" y1="225.01" x2="98.3" y2="195.13" style="stroke:#000; stroke-miterlimit:10; stroke-width:.25px;"/><line x1="75.42" y1="225.01" x2="105.28" y2="195.16" style="stroke:#000; stroke-miterlimit:10; stroke-width:.25px;"/><line x1="25.12" y1="79.32" x2="55.03" y2="49.4" style="stroke:#000; stroke-miterlimit:10; stroke-width:.25px;"/><line x1="25.31" y1="72.13" x2="55.03" y2="42.4" style="stroke:#000; stroke-miterlimit:10; stroke-width:.25px;"/><line x1="25.57" y1="64.86" x2="55.03" y2="35.4" style="stroke:#000; stroke-miterlimit:10; stroke-width:.25px;"/><line x1="25.12" y1="58.32" x2="54.6" y2="28.83" style="stroke:#000; stroke-miterlimit:10; stroke-width:.25px;"/><line x1="24.87" y1="51.57" x2="51.49" y2="24.95" style="stroke:#000; stroke-miterlimit:10; stroke-width:.25px;"/><line x1="25.07" y1="44.36" x2="44.49" y2="24.95" style="stroke:#000; stroke-miterlimit:10; stroke-width:.25px;"/><line x1="24.93" y1="37.51" x2="37.49" y2="24.95" style="stroke:#000; stroke-miterlimit:10; stroke-width:.25px;"/><line x1="25.02" y1="30.42" x2="30.49" y2="24.95" style="stroke:#000; stroke-miterlimit:10; stroke-width:.25px;"/><line x1="82.42" y1="225.01" x2="112.83" y2="194.6" style="stroke:#000; stroke-miterlimit:10; stroke-width:.25px;"/><line x1="89.42" y1="225.01" x2="119.49" y2="194.94" style="stroke:#000; stroke-miterlimit:10; stroke-width:.25px;"/><line x1="96.42" y1="225.01" x2="126.49" y2="194.94" style="stroke:#000; stroke-miterlimit:10; stroke-width:.25px;"/><line x1="103.42" y1="225.01" x2="133.63" y2="194.81" style="stroke:#000; stroke-miterlimit:10; stroke-width:.25px;"/><line x1="110.42" y1="225.01" x2="140.49" y2="194.94" style="stroke:#000; stroke-miterlimit:10; stroke-width:.25px;"/><line x1="117.42" y1="225.01" x2="147.3" y2="195.13" style="stroke:#000; stroke-miterlimit:10; stroke-width:.25px;"/><line x1="124.42" y1="225.01" x2="154.3" y2="195.13" style="stroke:#000; stroke-miterlimit:10; stroke-width:.25px;"/><line x1="131.42" y1="225.01" x2="161.3" y2="195.13" style="stroke:#000; stroke-miterlimit:10; stroke-width:.25px;"/><line x1="138.42" y1="225.01" x2="168.3" y2="195.13" style="stroke:#000; stroke-miterlimit:10; stroke-width:.25px;"/><line x1="145.42" y1="225.01" x2="175.3" y2="195.13" style="stroke:#000; stroke-miterlimit:10; stroke-width:.25px;"/><line x1="152.42" y1="225.01" x2="182.3" y2="195.13" style="stroke:#000; stroke-miterlimit:10; stroke-width:.25px;"/><line x1="159.42" y1="225.01" x2="189.3" y2="195.13" style="stroke:#000; stroke-miterlimit:10; stroke-width:.25px;"/><line x1="166.42" y1="225.01" x2="196.3" y2="195.13" style="stroke:#000; stroke-miterlimit:10; stroke-width:.25px;"/><line x1="173.42" y1="225.01" x2="203.3" y2="195.13" style="stroke:#000; stroke-miterlimit:10; stroke-width:.25px;"/><line x1="180.42" y1="225.01" x2="210.3" y2="195.13" style="stroke:#000; stroke-miterlimit:10; stroke-width:.25px;"/><line x1="187.42" y1="225.01" x2="217.3" y2="195.13" style="stroke:#000; stroke-miterlimit:10; stroke-width:.25px;"/><line x1="194.42" y1="225.01" x2="224.3" y2="195.13" style="stroke:#000; stroke-miterlimit:10; stroke-width:.25px;"/><line x1="201.42" y1="225.01" x2="224.81" y2="201.62" style="stroke:#000; stroke-miterlimit:10; stroke-width:.25px;"/><line x1="208.42" y1="225.01" x2="224.78" y2="208.65" style="stroke:#000; stroke-miterlimit:10; stroke-width:.25px;"/><line x1="215.42" y1="225.01" x2="225.16" y2="215.27" style="stroke:#000; stroke-miterlimit:10; stroke-width:.25px;"/><line x1="222.42" y1="225.01" x2="225.07" y2="222.36" style="stroke:#000; stroke-miterlimit:10; stroke-width:.25px;"/><path d="M127.96,239.82c-.27,.3-.63,.56-1.08,.77s-.91,.31-1.37,.31h-1.64c-.88,0-1.65-.32-2.3-.95s-.98-1.41-.98-2.33v-4.92c0-.91,.32-1.68,.96-2.32s1.41-.96,2.32-.96h4.1c.55,0,.82,.27,.82,.82v7.36c0,.33,.11,.66,.32,1.01,.19,.3,.46,.54,.82,.71,.34,.14,.52,.39,.52,.74,0,.24-.08,.44-.23,.6-.14,.16-.34,.25-.59,.25-.12,0-.23-.03-.34-.08-.54-.21-.98-.54-1.32-1Zm-.81-2.2v-6.56h-3.28c-.46,0-.85,.16-1.17,.47-.16,.16-.27,.33-.35,.53s-.12,.41-.12,.64v4.92c0,.46,.16,.85,.47,1.17,.16,.14,.34,.26,.53,.35,.23,.08,.45,.12,.64,.12h1.64c.45,0,.84-.15,1.16-.46s.48-.7,.48-1.18Z"/><path d="M12.72,121.18h3.28c.89,0,1.66,.32,2.31,.96s.97,1.41,.97,2.33v4.92c0,.9-.32,1.67-.96,2.31s-1.41,.97-2.32,.97h-4.1c-.55,0-.82-.27-.82-.82v-14.77c0-.22,.08-.42,.25-.61,.16-.14,.36-.21,.57-.21s.4,.07,.57,.21,.25,.34,.25,.62v4.1Zm0,1.64v8.2h3.28c.45,0,.84-.15,1.16-.46s.48-.7,.48-1.18v-4.92c0-.46-.15-.85-.46-1.17s-.7-.47-1.18-.47h-3.28Z"/><line x1="25" y1="224.88" x2="25" y2="239.88" style="fill:none; stroke:#000; stroke-miterlimit:10; stroke-width:.5px;"/><line x1="25" y1="234.88" x2="115" y2="234.88" style="stroke:#000; stroke-miterlimit:10; stroke-width:.5px;"/><line x1="225.03" y1="224.94" x2="225.03" y2="239.94" style="fill:none; stroke:#000; stroke-miterlimit:10; stroke-width:.5px;"/><line x1="225.03" y1="234.94" x2="135.03" y2="234.94" style="fill:none; stroke:#000; stroke-miterlimit:10; stroke-width:.5px;"/><line x1="15" y1="225" x2="15" y2="140" style="fill:none; stroke:#000; stroke-miterlimit:10; stroke-width:.5px;"/><line x1="25" y1="224.88" x2="10" y2="224.88" style="fill:none; stroke:#000; stroke-miterlimit:10; stroke-width:.5px;"/><line x1="24.65" y1="25.09" x2="9.65" y2="25.09" style="stroke:#000; stroke-miterlimit:10; stroke-width:.5px;"/><line x1="15.09" y1="25.09" x2="15.09" y2="110.09" style="stroke:#000; stroke-miterlimit:10; stroke-width:.5px;"/><line x1="185.24" y1="229.94" x2="185.24" y2="159.94" style="stroke:#000; stroke-miterlimit:10; stroke-width:.5px;"/><path d="M188.56,147.53c0,.23-.09,.42-.26,.59s-.35,.25-.52,.25l-.4-.09c-.98-.47-1.91-.7-2.79-.7s-1.67,.21-2.3,.63c-.16,.13-.23,.29-.23,.48,0,.21,.08,.36,.23,.46l5.24,3.45c.34,.27,.59,.57,.75,.92,.16,.35,.25,.69,.25,1.01,0,.37-.09,.73-.26,1.09-.18,.36-.42,.63-.72,.82-.93,.63-2,.94-3.2,.94s-2.32-.3-3.4-.91c-.3-.18-.45-.41-.45-.7l.05-.31,.08-.18,.11-.13c.17-.17,.36-.26,.58-.26l.22,.04,.2,.07c.84,.48,1.71,.72,2.61,.72,.81,0,1.58-.23,2.3-.68,.18-.11,.27-.29,.27-.54s-.09-.45-.27-.56l-5.25-3.45c-.3-.2-.52-.46-.66-.79-.1-.19-.17-.35-.19-.49s-.04-.32-.04-.55c0-.34,.08-.68,.23-1.02,.21-.39,.43-.65,.66-.79,.91-.63,1.99-.94,3.22-.94,.54,0,1.12,.08,1.76,.25s1.21,.37,1.75,.62c.3,.2,.46,.45,.46,.73Z"/><path d="M25.12,224.5V25.09c3.81,0,29.53,0,29.53,0h.38c0,5.61,0,169.85,0,169.85H225.03v30H25.03" style="fill:none; stroke:#000; stroke-miterlimit:10;"/></svg>