<?xml version="1.0" encoding="UTF-8"?><svg id="a" xmlns="http://www.w3.org/2000/svg" viewBox="0 0 250 250"><line x1="116.38" y1="149.06" x2="146.38" y2="119.06" style="stroke:#000; stroke-miterlimit:10; stroke-width:.25px;"/><line x1="109.38" y1="149.06" x2="139.38" y2="119.06" style="stroke:#000; stroke-miterlimit:10; stroke-width:.25px;"/><line x1="102.38" y1="149.06" x2="132.38" y2="119.06" style="stroke:#000; stroke-miterlimit:10; stroke-width:.25px;"/><line x1="95.38" y1="149.06" x2="125.38" y2="119.06" style="stroke:#000; stroke-miterlimit:10; stroke-width:.25px;"/><line x1="88.38" y1="149.06" x2="118.38" y2="119.06" style="stroke:#000; stroke-miterlimit:10; stroke-width:.25px;"/><line x1="81.38" y1="149.06" x2="111.38" y2="119.06" style="stroke:#000; stroke-miterlimit:10; stroke-width:.25px;"/><line x1="74.38" y1="149.06" x2="104.38" y2="119.06" style="stroke:#000; stroke-miterlimit:10; stroke-width:.25px;"/><line x1="67.38" y1="149.06" x2="97.38" y2="119.06" style="stroke:#000; stroke-miterlimit:10; stroke-width:.25px;"/><line x1="60.38" y1="149.06" x2="90.38" y2="119.06" style="stroke:#000; stroke-miterlimit:10; stroke-width:.25px;"/><line x1="53.38" y1="149.06" x2="83.38" y2="119.06" style="stroke:#000; stroke-miterlimit:10; stroke-width:.25px;"/><line x1="46.38" y1="149.06" x2="76.38" y2="119.06" style="stroke:#000; stroke-miterlimit:10; stroke-width:.25px;"/><line x1="39.38" y1="149.06" x2="69.38" y2="119.06" style="stroke:#000; stroke-miterlimit:10; stroke-width:.25px;"/><line x1="32.38" y1="149.06" x2="62.38" y2="119.06" style="stroke:#000; stroke-miterlimit:10; stroke-width:.25px;"/><line x1="25.38" y1="149.06" x2="55.38" y2="119.06" style="stroke:#000; stroke-miterlimit:10; stroke-width:.25px;"/><line x1="25.5" y1="141.93" x2="48.38" y2="119.06" style="stroke:#000; stroke-miterlimit:10; stroke-width:.25px;"/><line x1="25.5" y1="134.93" x2="41.38" y2="119.06" style="stroke:#000; stroke-miterlimit:10; stroke-width:.25px;"/><line x1="25.5" y1="127.93" x2="34.38" y2="119.06" style="stroke:#000; stroke-miterlimit:10; stroke-width:.25px;"/><line x1="25.5" y1="120.93" x2="27.38" y2="119.06" style="stroke:#000; stroke-miterlimit:10; stroke-width:.25px;"/><line x1="123.38" y1="149.06" x2="153.38" y2="119.06" style="stroke:#000; stroke-miterlimit:10; stroke-width:.25px;"/><line x1="130.38" y1="149.06" x2="160.38" y2="119.06" style="stroke:#000; stroke-miterlimit:10; stroke-width:.25px;"/><line x1="137.38" y1="149.06" x2="167.38" y2="119.06" style="stroke:#000; stroke-miterlimit:10; stroke-width:.25px;"/><line x1="144.38" y1="149.06" x2="174.38" y2="119.06" style="stroke:#000; stroke-miterlimit:10; stroke-width:.25px;"/><line x1="151.38" y1="149.06" x2="181.38" y2="119.06" style="stroke:#000; stroke-miterlimit:10; stroke-width:.25px;"/><line x1="158.38" y1="149.06" x2="188.38" y2="119.06" style="stroke:#000; stroke-miterlimit:10; stroke-width:.25px;"/><line x1="165.38" y1="149.06" x2="195.38" y2="119.06" style="stroke:#000; stroke-miterlimit:10; stroke-width:.25px;"/><line x1="172.38" y1="149.06" x2="202.38" y2="119.06" style="stroke:#000; stroke-miterlimit:10; stroke-width:.25px;"/><line x1="179.38" y1="149.06" x2="209.38" y2="119.06" style="stroke:#000; stroke-miterlimit:10; stroke-width:.25px;"/><line x1="186.38" y1="149.06" x2="216.38" y2="119.06" style="stroke:#000; stroke-miterlimit:10; stroke-width:.25px;"/><line x1="193.38" y1="149.06" x2="223.38" y2="119.06" style="stroke:#000; stroke-miterlimit:10; stroke-width:.25px;"/><line x1="200.38" y1="149.06" x2="225.22" y2="124.22" style="stroke:#000; stroke-miterlimit:10; stroke-width:.25px;"/><line x1="207.38" y1="149.06" x2="225.14" y2="131.29" style="stroke:#000; stroke-miterlimit:10; stroke-width:.25px;"/><line x1="214.38" y1="149.06" x2="225.5" y2="137.93" style="stroke:#000; stroke-miterlimit:10; stroke-width:.25px;"/><line x1="221.38" y1="149.06" x2="225.5" y2="144.93" style="stroke:#000; stroke-miterlimit:10; stroke-width:.25px;"/><path d="M18.19,138.53c-.27,.3-.63,.56-1.08,.77s-.91,.31-1.37,.31h-1.64c-.88,0-1.65-.32-2.3-.95s-.98-1.41-.98-2.33v-4.92c0-.91,.32-1.68,.96-2.32s1.41-.96,2.32-.96h4.1c.55,0,.82,.27,.82,.82v7.36c0,.33,.11,.66,.32,1.01,.19,.3,.46,.54,.82,.71,.34,.14,.52,.39,.52,.74,0,.24-.08,.44-.23,.6-.14,.16-.34,.25-.59,.25-.12,0-.23-.03-.34-.08-.54-.21-.98-.54-1.32-1Zm-.81-2.2v-6.56h-3.28c-.46,0-.85,.16-1.17,.47-.16,.16-.27,.33-.35,.53s-.12,.41-.12,.64v4.92c0,.46,.16,.85,.47,1.17,.16,.14,.34,.26,.53,.35,.23,.08,.45,.12,.64,.12h1.64c.45,0,.84-.15,1.16-.46s.48-.7,.48-1.18Z"/><line x1="15" y1="149.06" x2="15" y2="142.06" style="fill:none; stroke:#000; stroke-miterlimit:10; stroke-width:.5px;"/><line x1="25" y1="149.06" x2="10" y2="149.06" style="fill:none; stroke:#000; stroke-miterlimit:10; stroke-width:.5px;"/><line x1="24.88" y1="119.18" x2="9.88" y2="119.18" style="stroke:#000; stroke-miterlimit:10; stroke-width:.5px;"/><line x1="15.09" y1="119" x2="15.09" y2="126" style="stroke:#000; stroke-miterlimit:10; stroke-width:.5px;"/><rect x="25.5" y="119.06" width="200" height="30" style="fill:none; stroke:#000; stroke-miterlimit:10;"/></svg>